<svg width="98" height="51" viewBox="0 0 98 51" fill="none" xmlns="http://www.w3.org/2000/svg">
<path d="M0 7C0 3.13401 3.13401 0 7 0H90.6037C94.4697 0 97.6037 3.13401 97.6037 7V43.145C97.6037 47.011 94.4697 50.145 90.6037 50.145H7C3.13401 50.145 0 47.011 0 43.145V7Z" fill="#172654"/>
<mask id="mask0_955_398" style="mask-type:luminance" maskUnits="userSpaceOnUse" x="29" y="17" width="40" height="17">
<path d="M68.054 17.9092H29.5498V33.7639H68.054V17.9092Z" fill="white"/>
</mask>
<g mask="url(#mask0_955_398)">
<path d="M36.5885 19.9532C36.1378 20.4888 35.416 20.9112 34.6935 20.8508C34.6037 20.1267 34.957 19.3574 35.3708 18.8822C35.8215 18.3316 36.6112 17.9393 37.2507 17.9092C37.3262 18.6634 37.0325 19.4026 36.5885 19.9532ZM37.2431 20.9941C36.1974 20.9338 35.3028 21.59 34.8068 21.59C34.3024 21.59 33.5429 21.0243 32.7162 21.0394C31.6403 21.0545 30.64 21.6654 30.0911 22.6384C28.9632 24.5845 29.7982 27.4657 30.8884 29.0497C31.4222 29.8342 32.0616 30.694 32.9042 30.6638C33.7007 30.6337 34.0171 30.1434 34.9797 30.1434C35.9498 30.1434 36.2276 30.6638 37.0702 30.6487C37.9422 30.6336 38.4919 29.8643 39.0256 29.0799C39.6349 28.1898 39.8825 27.3224 39.8976 27.2772C39.8825 27.2621 38.2133 26.6209 38.1982 24.69C38.1831 23.0759 39.5141 22.3066 39.5745 22.2613C38.8225 21.145 37.6493 21.0243 37.2431 20.9941ZM43.2822 18.8068V30.5657H45.1017V26.5455H47.6211C49.9223 26.5455 51.5395 24.9616 51.5395 22.6686C51.5395 20.3756 49.9525 18.8068 47.6815 18.8068H43.2822ZM45.1017 20.3455H47.1998C48.7793 20.3455 49.6815 21.1902 49.6815 22.6762C49.6815 24.162 48.7793 25.0143 47.1923 25.0143H45.1017V20.3455ZM54.8637 30.6563C56.0067 30.6563 57.0667 30.0755 57.5484 29.1553H57.5854V30.5657H59.2706V24.7126C59.2706 23.0156 57.9168 21.9219 55.8331 21.9219C53.9011 21.9219 52.4719 23.0306 52.4191 24.5543H54.0589C54.194 23.8301 54.8637 23.355 55.781 23.355C56.8939 23.355 57.5182 23.8754 57.5182 24.8334V25.482L55.2472 25.6178C53.134 25.746 51.9902 26.6134 51.9902 28.1219C51.9902 29.6456 53.171 30.6563 54.8637 30.6563ZM55.3522 29.2609C54.382 29.2609 53.7652 28.7933 53.7652 28.0767C53.7652 27.3375 54.3594 26.9075 55.4948 26.8397L57.5182 26.7115V27.3753C57.5182 28.4765 56.5858 29.2609 55.3522 29.2609ZM61.5189 33.7639C63.2938 33.7639 64.1281 33.0851 64.8582 31.0259L68.054 22.035H66.2043L64.0609 28.9818H64.0232L61.8798 22.035H59.9772L63.0605 30.5959L62.8952 31.1164C62.6166 31.9989 62.1659 32.3383 61.3611 32.3383C61.2184 32.3383 60.9398 32.3232 60.8273 32.3081V33.7186C60.9322 33.7488 61.3837 33.7639 61.5189 33.7639Z" fill="white"/>
</g>
</svg>
