<svg width="98" height="51" viewBox="0 0 98 51" fill="none" xmlns="http://www.w3.org/2000/svg">
<path d="M0.349121 7C0.349121 3.13401 3.48313 0 7.34912 0H90.9528C94.8188 0 97.9528 3.13401 97.9528 7V43.145C97.9528 47.011 94.8188 50.145 90.9528 50.145H7.34912C3.48313 50.145 0.349121 47.011 0.349121 43.145V7Z" fill="#172654"/>
<path d="M31.7042 25.2512C30.9344 28.3505 27.8066 30.2367 24.7174 29.4638C21.6298 28.6912 19.7504 25.5519 20.5209 22.4528C21.2906 19.3532 24.4185 17.4668 27.5061 18.2395C30.5953 19.0122 32.4747 22.1518 31.7042 25.2512Z" fill="#F7931A"/>
<path d="M28.6543 23.0263C28.7686 22.2565 28.1842 21.8427 27.3861 21.5666L27.6448 20.5238L27.0123 20.3656L26.7599 21.3809C26.5943 21.3393 26.4232 21.3001 26.2536 21.2612L26.5075 20.2392L25.875 20.0811L25.6163 21.1235C25.4783 21.092 25.3435 21.0609 25.2125 21.0282V21.025L24.3403 20.8064L24.1723 21.4843C24.1723 21.4843 24.6415 21.5923 24.6321 21.599C24.8876 21.6631 24.9341 21.8333 24.9262 21.9681L24.6313 23.1561C24.6494 23.1606 24.6723 23.1671 24.6975 23.1772C24.6762 23.172 24.6534 23.1663 24.6305 23.1607L24.2165 24.8248C24.1857 24.9029 24.106 25.02 23.927 24.9755C23.9333 24.9848 23.4672 24.8604 23.4672 24.8604L23.1533 25.587L23.9759 25.7929C24.1289 25.8314 24.2795 25.8718 24.427 25.9097L24.1652 26.9644L24.7969 27.1226L25.0564 26.0791C25.2291 26.1261 25.3963 26.1695 25.5603 26.2104L25.3025 27.249L25.935 27.4071L26.196 26.3544C27.2749 26.5593 28.0856 26.4767 28.4271 25.4977C28.7024 24.7094 28.4137 24.2548 27.8459 23.9582C28.2592 23.8627 28.5707 23.5899 28.6543 23.0263ZM27.2087 25.06C27.0131 25.8483 25.6905 25.4221 25.2622 25.3153L25.6092 23.9179C26.0383 24.0254 27.4129 24.238 27.2087 25.06ZM27.4042 23.0149C27.226 23.7319 26.125 23.3676 25.7685 23.2783L26.0832 22.0109C26.4405 22.1003 27.5904 22.2669 27.4042 23.0149Z" fill="white"/>
<path d="M37.242 21.5689C37.7089 21.5689 38.1135 21.653 38.4526 21.8181C38.7933 21.9848 39.0749 22.2093 39.3004 22.4917C39.5236 22.7755 39.6892 23.1073 39.7965 23.4875C39.9022 23.8687 39.9558 24.2786 39.9558 24.7174C39.9558 25.3913 39.8328 26.0281 39.5843 26.6284C39.3359 27.2295 38.9992 27.7509 38.5701 28.1956C38.1419 28.6398 37.6356 28.99 37.0527 29.2487C36.4699 29.5076 35.8366 29.637 35.1568 29.637C35.0693 29.637 34.9146 29.6345 34.6962 29.6299C34.4777 29.6255 34.2269 29.6029 33.9454 29.5647C33.6631 29.5251 33.3641 29.4665 33.0479 29.3881C32.7324 29.3111 32.4327 29.2031 32.1504 29.0661L34.6749 18.4219L36.9352 18.0703L36.0314 21.8475C36.2254 21.76 36.4202 21.6922 36.615 21.6429C36.809 21.5943 37.018 21.5689 37.242 21.5689ZM35.3452 27.8371C35.6859 27.8371 36.0069 27.753 36.3082 27.5879C36.6103 27.4227 36.8713 27.1996 37.0898 26.9218C37.3083 26.6426 37.481 26.3282 37.6072 25.9769C37.7334 25.6257 37.7972 25.2592 37.7972 24.8779C37.7972 24.4095 37.7192 24.0441 37.5638 23.78C37.4084 23.5169 37.1205 23.3846 36.7025 23.3846C36.5661 23.3846 36.3894 23.4108 36.171 23.4576C35.9509 23.5074 35.7546 23.6106 35.5787 23.7659L34.6166 27.7773C34.6749 27.7875 34.7262 27.7973 34.7695 27.8066C34.8129 27.8165 34.8602 27.8235 34.9068 27.8284C34.9572 27.834 35.014 27.8369 35.0834 27.8369C35.152 27.8369 35.2388 27.8371 35.3452 27.8371Z" fill="white"/>
<path d="M42.3014 29.4334H40.1421L41.9655 21.7323H44.1398L42.3014 29.4334ZM43.352 20.794C43.0507 20.794 42.7778 20.704 42.5349 20.5236C42.2904 20.3442 42.1697 20.0681 42.1697 19.6961C42.1697 19.4914 42.2108 19.2994 42.2928 19.1183C42.3764 18.9375 42.4852 18.7818 42.6216 18.6495C42.7581 18.5182 42.9166 18.4134 43.0956 18.3344C43.2762 18.2566 43.4687 18.2178 43.6729 18.2178C43.9742 18.2178 44.2463 18.3078 44.4892 18.4882C44.7321 18.6696 44.8536 18.9456 44.8536 19.3157C44.8536 19.5211 44.8126 19.7138 44.7298 19.8946C44.6477 20.0754 44.5381 20.231 44.4017 20.3634C44.2668 20.4948 44.1075 20.5993 43.9284 20.6776C43.7471 20.7566 43.5562 20.794 43.352 20.794Z" fill="white"/>
<path d="M46.0325 19.8135L48.2944 19.4619L47.7392 21.7319H50.1612L49.7242 23.5178H47.3164L46.6745 26.2115C46.6153 26.4361 46.5822 26.6458 46.5727 26.8407C46.5625 27.0365 46.5869 27.2045 46.6453 27.3461C46.7029 27.4881 46.8078 27.5975 46.9592 27.6748C47.1098 27.7535 47.3251 27.7931 47.6082 27.7931C47.8409 27.7931 48.0681 27.7708 48.2873 27.7267C48.5058 27.6833 48.7266 27.6229 48.9506 27.5439L49.1114 29.2137C48.8196 29.3211 48.5034 29.4134 48.1627 29.4912C47.822 29.57 47.4182 29.608 46.9513 29.608C46.2809 29.608 45.7604 29.508 45.3897 29.3089C45.0199 29.1085 44.7588 28.8346 44.6018 28.4878C44.4473 28.1424 44.3787 27.7441 44.3976 27.2953C44.4181 26.8455 44.4851 26.3727 44.6018 25.8749L46.0325 19.8135Z" fill="white"/>
<path d="M50.0652 26.3581C50.0652 25.6947 50.1717 25.0693 50.3862 24.4837C50.5991 23.8975 50.9067 23.385 51.3058 22.9451C51.7032 22.5074 52.1875 22.1607 52.7577 21.9062C53.3255 21.653 53.9612 21.5254 54.6615 21.5254C55.0992 21.5254 55.4912 21.567 55.8359 21.6503C56.1813 21.7344 56.4944 21.843 56.7776 21.9793L56.0323 23.6788C55.8382 23.5996 55.6363 23.5298 55.4273 23.4665C55.2183 23.402 54.9628 23.3709 54.6615 23.3709C53.9407 23.3709 53.3705 23.6202 52.947 24.1172C52.5243 24.6145 52.3113 25.284 52.3113 26.1238C52.3113 26.6215 52.4186 27.0239 52.6331 27.3318C52.8468 27.6397 53.242 27.7928 53.8145 27.7928C54.0977 27.7928 54.3705 27.7632 54.6316 27.7053C54.895 27.6468 55.1276 27.573 55.3327 27.4858L55.4936 29.2279C55.2207 29.3342 54.9194 29.4303 54.589 29.5143C54.2577 29.5955 53.8642 29.6376 53.4068 29.6376C52.8034 29.6376 52.2924 29.549 51.8752 29.3745C51.4572 29.1974 51.1117 28.9622 50.8397 28.6642C50.566 28.3656 50.3696 28.0168 50.2482 27.6166C50.1267 27.2166 50.0652 26.7965 50.0652 26.3581Z" fill="white"/>
<path d="M59.6593 29.6357C59.1435 29.6357 58.6955 29.5568 58.3162 29.4008C57.9376 29.2448 57.6237 29.0259 57.3753 28.742C57.1269 28.4596 56.9415 28.125 56.8137 27.7393C56.6868 27.3539 56.6252 26.9271 56.6252 26.4594C56.6252 25.8727 56.7191 25.2862 56.9092 24.7014C57.0977 24.1152 57.3776 23.5886 57.7483 23.1206C58.1166 22.6517 58.5701 22.2685 59.1048 21.9696C59.6388 21.6728 60.2523 21.5234 60.9416 21.5234C61.448 21.5234 61.8936 21.6024 62.2784 21.7585C62.6617 21.9142 62.9772 22.1349 63.2264 22.4172C63.4733 22.7011 63.661 23.0343 63.7872 23.4205C63.9141 23.8052 63.9772 24.2331 63.9772 24.7011C63.9772 25.286 63.8841 25.8725 63.7004 26.4592C63.5166 27.0429 63.2438 27.5709 62.8834 28.04C62.5237 28.508 62.0742 28.8912 61.5339 29.1887C60.9945 29.4863 60.3691 29.6357 59.6593 29.6357ZM60.7382 23.3691C60.418 23.3691 60.1348 23.4624 59.8927 23.6466C59.6498 23.8331 59.4455 24.0674 59.2807 24.3499C59.1143 24.6337 58.9905 24.9433 58.9077 25.2797C58.8249 25.6169 58.7838 25.9356 58.7838 26.2384C58.7838 26.7271 58.8627 27.1077 59.0173 27.3816C59.1734 27.654 59.455 27.791 59.8635 27.791C60.1845 27.791 60.4661 27.6985 60.7098 27.5123C60.9519 27.3273 61.1562 27.0928 61.3226 26.8097C61.4874 26.5273 61.612 26.217 61.6956 25.88C61.7768 25.5438 61.8186 25.2233 61.8186 24.921C61.8186 24.4336 61.7405 24.0521 61.5844 23.7786C61.429 23.5062 61.1467 23.3691 60.7382 23.3691Z" fill="white"/>
<path d="M66.3297 29.4334H64.168L65.9921 21.7323H68.1673L66.3297 29.4334ZM67.3786 20.794C67.0773 20.794 66.8045 20.704 66.5624 20.5236C66.3195 20.3442 66.1972 20.0681 66.1972 19.6961C66.1972 19.4914 66.239 19.2994 66.321 19.1183C66.4038 18.9375 66.5135 18.7818 66.6499 18.6495C66.7856 18.5182 66.9448 18.4134 67.1239 18.3344C67.3037 18.2566 67.4954 18.2178 67.6996 18.2178C68.0017 18.2178 68.2746 18.3078 68.5175 18.4882C68.7604 18.6696 68.8826 18.9456 68.8826 19.3157C68.8826 19.5211 68.8392 19.7138 68.758 19.8946C68.676 20.0754 68.5663 20.231 68.4299 20.3634C68.2935 20.4948 68.1358 20.5993 67.9567 20.6776C67.7753 20.7566 67.5837 20.794 67.3786 20.794Z" fill="white"/>
<path d="M69.7241 22.0814C69.8882 22.0333 70.0711 21.9755 70.2699 21.9126C70.4702 21.8497 70.6934 21.7911 70.9426 21.7383C71.1895 21.6839 71.4671 21.6398 71.7739 21.6056C72.0799 21.5707 72.4285 21.5537 72.8157 21.5537C73.9546 21.5537 74.74 21.8866 75.173 22.5502C75.6068 23.2139 75.6817 24.1222 75.4002 25.2735L74.4073 29.4316H72.2337L73.1959 25.3609C73.255 25.1068 73.3007 24.8611 73.3346 24.6209C73.3693 24.3831 73.367 24.1734 73.3276 23.9918C73.2889 23.8125 73.1982 23.6657 73.0579 23.552C72.9159 23.4401 72.7006 23.3838 72.408 23.3838C72.1264 23.3838 71.8401 23.4142 71.5475 23.4728L70.1327 29.4314H67.9575L69.7241 22.0814Z" fill="white"/>
</svg>
