<svg width="23" height="23" viewBox="0 0 23 23" fill="none" xmlns="http://www.w3.org/2000/svg">
<path d="M22.0894 5.07489L11.6465 0.0334893C11.5539 -0.0111631 11.4461 -0.0111631 11.3536 0.0334893L0.910639 5.07489C0.794201 5.13109 0.720215 5.24901 0.720215 5.37829V17.6217C0.720215 17.751 0.794201 17.8689 0.910639 17.9251L11.3535 22.9665C11.3998 22.9888 11.4499 23 11.5 23C11.5501 23 11.6002 22.9888 11.6465 22.9665L22.0894 17.9251C22.2059 17.8689 22.2798 17.751 22.2798 17.6217V5.37834C22.2798 5.24896 22.2058 5.13113 22.0894 5.07489ZM11.5 0.711046L21.168 5.37829L18.3654 6.73125C18.3477 6.71773 18.329 6.70524 18.3084 6.69531L8.70611 2.05983L11.5 0.711046ZM7.94522 2.44076L17.5991 7.10123L15.6219 8.05577L5.97199 3.39719L7.94522 2.44076ZM17.825 7.74038V11.2688L15.9781 12.1604V8.63199L17.825 7.74038ZM21.606 17.4103L11.8369 22.1263V10.6311L14.1672 9.50621C14.3347 9.42531 14.405 9.22392 14.3241 9.05632C14.2432 8.8888 14.0418 8.81846 13.8742 8.89941L11.5 10.0456L10.5658 9.59457C10.3982 9.51358 10.1968 9.58393 10.1159 9.75148C10.035 9.91904 10.1053 10.1205 10.2729 10.2014L11.1631 10.6311V22.1263L1.39404 17.4102V5.91507L8.83311 9.50634C8.88032 9.52917 8.93023 9.53995 8.97933 9.53995C9.10457 9.53995 9.22487 9.46978 9.28295 9.34943C9.36386 9.18187 9.2936 8.98044 9.12604 8.89954L1.83208 5.37829L5.17898 3.76254L15.2996 8.64838C15.3011 8.65045 15.3028 8.65229 15.3043 8.65431V12.6972C15.3043 12.8132 15.3639 12.9209 15.4621 12.9826C15.5166 13.0169 15.5788 13.0341 15.6412 13.0341C15.6912 13.0341 15.7413 13.0231 15.7877 13.0006L18.3084 11.7837C18.4248 11.7276 18.4988 11.6097 18.4988 11.4803V7.41514L21.606 5.91511V17.4103Z" fill="#0D1C4C"/>
<path d="M4.1742 16.1035L2.64169 15.3637C2.47404 15.2827 2.2727 15.3531 2.19179 15.5206C2.11089 15.6882 2.18115 15.8896 2.34871 15.9705L3.88121 16.7103C3.92843 16.7332 3.97834 16.7439 4.02744 16.7439C4.15268 16.7439 4.27298 16.6738 4.33106 16.5534C4.41201 16.3858 4.34175 16.1845 4.1742 16.1035Z" fill="#0D1C4C"/>
<path d="M5.58491 15.1857L2.6441 13.766C2.4765 13.6851 2.27511 13.7554 2.19421 13.923C2.11335 14.0905 2.1836 14.292 2.35116 14.3729L5.29197 15.7926C5.33919 15.8153 5.38909 15.8262 5.43819 15.8262C5.56344 15.8262 5.68374 15.756 5.74182 15.6357C5.82273 15.468 5.75247 15.2666 5.58491 15.1857Z" fill="#0D1C4C"/>
</svg>
