<svg width="29" height="27" viewBox="0 0 29 27" fill="none" xmlns="http://www.w3.org/2000/svg">
<path d="M0.638078 16.748C0.638078 16.864 0.696078 16.922 0.754078 16.98L16.1821 25.97C16.2981 26.028 16.3561 26.028 16.4721 25.97L18.8501 24.578L21.4601 26.086C21.5761 26.144 21.6341 26.144 21.7501 26.086C21.8661 26.028 21.9241 25.912 21.8661 25.854V22.838L25.2881 20.866L27.8981 22.374C27.9561 22.374 28.0141 22.432 28.0721 22.432C28.2461 22.432 28.3621 22.316 28.3621 22.142L28.4201 14.66C28.4201 14.544 28.3621 14.486 28.2461 14.428L25.6361 12.92V10.194C25.6361 10.078 25.5781 10.02 25.4621 9.962L15.8921 4.278C15.7761 4.22 15.6021 4.22 15.4861 4.394C15.4281 4.51 15.4281 4.684 15.6021 4.8L24.7661 10.136L16.2981 15.008L1.45008 6.366L9.91808 1.494L12.1801 2.77C12.2961 2.828 12.4701 2.828 12.5861 2.654C12.7021 2.48 12.6441 2.364 12.4701 2.248L10.0921 0.856C9.97608 0.798 9.91808 0.798 9.80208 0.856L0.754078 6.076C0.638078 6.192 0.580078 6.308 0.580078 6.366L0.638078 16.748ZM1.16008 16.574V6.888L16.0081 15.53V25.216L1.16008 16.574ZM23.7221 12.746V19.532L21.8661 20.576V18.372C21.8661 18.256 21.8081 18.198 21.6921 18.14L18.0381 15.994L23.7221 12.746ZM19.0241 23.998L17.8061 23.302C17.8061 18.952 17.8061 18.256 17.8061 16.516L21.3441 18.546C21.3441 18.604 21.3441 25.39 21.3441 25.332L19.0241 23.998ZM24.7661 20.518L21.9241 22.2V21.33L24.0701 20.112C24.0701 20.112 24.8241 20.518 24.7661 20.518ZM27.8401 21.62C27.7821 21.562 24.1281 19.416 24.3601 19.532C24.3601 19.068 24.3601 13.5 24.3601 12.746L25.0561 13.152L27.8981 14.776L27.8401 21.62ZM24.1861 11.992C24.0701 11.934 24.0121 11.934 23.8961 11.992C15.5441 16.806 25.5201 11.064 17.4001 15.762C17.3421 15.82 17.2841 15.936 17.2841 15.994V23.476C17.2841 23.592 17.3421 23.65 17.4581 23.708L18.3861 24.23L16.7621 25.158V15.472L25.0561 10.6V12.514L24.1861 11.992Z" fill="#0D1C4C"/>
<path d="M2.4941 9.49805C2.3201 9.49805 2.2041 9.61405 2.2041 9.78805V15.182C2.2041 15.356 2.3201 15.472 2.4941 15.472C2.6681 15.472 2.7841 15.356 2.7841 15.182V9.78805C2.7841 9.67205 2.6681 9.49805 2.4941 9.49805Z" fill="#0D1C4C"/>
<path d="M4.52413 10.7158C4.35013 10.7158 4.23413 10.8318 4.23413 11.0058V16.3998C4.23413 16.5738 4.35013 16.6898 4.52413 16.6898C4.69813 16.6898 4.81413 16.5738 4.81413 16.3998V11.0058C4.81413 10.8318 4.69813 10.7158 4.52413 10.7158Z" fill="#0D1C4C"/>
<path d="M6.55416 11.876C6.38016 11.876 6.26416 11.992 6.26416 12.166V17.56C6.26416 17.734 6.38016 17.85 6.55416 17.85C6.72816 17.85 6.84416 17.734 6.84416 17.56V12.166C6.84416 11.992 6.72816 11.876 6.55416 11.876Z" fill="#0D1C4C"/>
<path d="M8.58419 13.0361C8.41019 13.0361 8.29419 13.1521 8.29419 13.3261V18.7201C8.29419 18.8941 8.41019 19.0101 8.58419 19.0101C8.75819 19.0101 8.87419 18.8941 8.87419 18.7201V13.3261C8.87419 13.2101 8.75819 13.0361 8.58419 13.0361Z" fill="#0D1C4C"/>
<path d="M10.6142 14.2539C10.4402 14.2539 10.3242 14.3699 10.3242 14.5439V19.9379C10.3242 20.1119 10.4402 20.2279 10.6142 20.2279C10.7882 20.2279 10.9042 20.1119 10.9042 19.9379V14.5439C10.9042 14.3699 10.7882 14.2539 10.6142 14.2539Z" fill="#0D1C4C"/>
<path d="M12.644 15.4141C12.47 15.4141 12.354 15.5301 12.354 15.7041V21.0981C12.354 21.2721 12.47 21.3881 12.644 21.3881C12.818 21.3881 12.934 21.2721 12.934 21.0981V15.7041C12.934 15.5301 12.818 15.4141 12.644 15.4141Z" fill="#0D1C4C"/>
<path d="M14.964 16.8642C14.964 16.6902 14.848 16.5742 14.674 16.5742C14.5 16.5742 14.384 16.6902 14.384 16.8642V22.2582C14.384 22.4322 14.5 22.5482 14.674 22.5482C14.848 22.5482 14.964 22.4322 14.964 22.2582V16.8642Z" fill="#0D1C4C"/>
<path d="M14.6742 3.58176L13.5142 2.88576C13.3982 2.82776 13.2242 2.82776 13.1082 3.00176C13.0502 3.11776 13.0502 3.29176 13.2242 3.40776L14.3842 4.10376C14.5002 4.16176 14.6742 4.16176 14.7902 3.98776C14.8482 3.81376 14.7902 3.63976 14.6742 3.58176Z" fill="#0D1C4C"/>
<path d="M9.74415 2.48002L3.48015 6.13402C3.36415 6.19202 3.36415 6.30802 3.30615 6.36602C3.30615 6.48202 3.36415 6.54002 3.42215 6.59802L16.1242 13.964C16.2402 14.022 16.2982 14.022 16.4142 13.964L22.6782 10.368C22.7942 10.31 22.7942 10.194 22.8522 10.136C22.8522 10.02 22.7942 9.96202 22.7362 9.90402L10.0342 2.48002C9.97615 2.42202 9.86015 2.42202 9.74415 2.48002ZM16.2982 13.384L4.23415 6.36602L9.91815 3.06002L22.0402 10.136L16.2982 13.384Z" fill="#0D1C4C"/>
<path d="M24.8821 14.7179C24.8241 14.8339 24.8241 15.0079 24.9981 15.1239L26.9121 16.2259C27.0281 16.2839 27.2021 16.2839 27.3181 16.1099C27.3761 15.9939 27.3761 15.8199 27.2021 15.7039L25.2881 14.6019C25.1141 14.5439 24.9401 14.6019 24.8821 14.7179Z" fill="#0D1C4C"/>
<path d="M27.202 17.5019L25.23 16.3999C25.114 16.3419 24.94 16.3419 24.824 16.5159C24.766 16.6319 24.766 16.8059 24.94 16.9219L26.854 18.0239C26.97 18.0819 27.144 18.0819 27.26 17.9079C27.376 17.7339 27.318 17.5599 27.202 17.5019Z" fill="#0D1C4C"/>
<path d="M27.202 19.2422L25.23 18.1402C25.114 18.0822 24.94 18.0822 24.824 18.2562C24.766 18.3722 24.766 18.5462 24.94 18.6622L26.854 19.7642C26.97 19.8222 27.144 19.8222 27.26 19.6482C27.376 19.5322 27.318 19.3582 27.202 19.2422Z" fill="#0D1C4C"/>
<path d="M20.706 19.4741L18.792 18.3721C18.676 18.3141 18.502 18.3141 18.386 18.4881C18.328 18.6041 18.328 18.7781 18.502 18.8941L20.416 19.9961C20.532 20.0541 20.706 20.0541 20.822 19.8801C20.88 19.7641 20.822 19.5901 20.706 19.4741Z" fill="#0D1C4C"/>
<path d="M20.706 21.2719L18.792 20.1699C18.676 20.1119 18.502 20.1119 18.386 20.2859C18.328 20.4019 18.328 20.5759 18.502 20.6919L20.416 21.7939C20.532 21.8519 20.706 21.8519 20.822 21.6779C20.88 21.5039 20.822 21.3299 20.706 21.2719Z" fill="#0D1C4C"/>
<path d="M20.706 23.0122L18.792 21.9102C18.676 21.8522 18.502 21.8522 18.386 22.0262C18.328 22.1422 18.328 22.3162 18.502 22.4322L20.416 23.5342C20.532 23.5922 20.706 23.5922 20.822 23.4182C20.88 23.2442 20.822 23.0702 20.706 23.0122Z" fill="#0D1C4C"/>
</svg>
