<svg width="21" height="21" viewBox="0 0 21 21" fill="none" xmlns="http://www.w3.org/2000/svg">
<path d="M0 7.4521V18.9739C0.000637662 19.5111 0.214329 20.0261 0.594198 20.406C0.974068 20.7859 1.4891 20.9996 2.02631 21.0002H13.5479C14.0852 20.9996 14.6002 20.7859 14.9801 20.406C15.3599 20.0261 15.5736 19.5111 15.5743 18.9739V7.4521C15.5736 6.91488 15.3599 6.39985 14.9801 6.01998C14.6002 5.64011 14.0852 5.42642 13.5479 5.42578H2.02631C1.4891 5.42642 0.974068 5.64011 0.594198 6.01998C0.214329 6.39985 0.000637662 6.91488 0 7.4521ZM14.469 7.4521V18.9739C14.4687 19.2181 14.3716 19.4522 14.1989 19.6249C14.0263 19.7976 13.7921 19.8947 13.5479 19.8949H2.02631C1.78211 19.8947 1.54799 19.7976 1.37532 19.6249C1.20264 19.4522 1.10552 19.2181 1.10526 18.9739V7.4521C1.10552 7.2079 1.20264 6.97377 1.37532 6.8011C1.54799 6.62842 1.78211 6.5313 2.02631 6.53104H13.5479C13.7921 6.5313 14.0263 6.62842 14.1989 6.8011C14.3716 6.97377 14.4687 7.2079 14.469 7.4521Z" fill="#3456FF"/>
<path d="M6.53104 3.26542V2.36091C6.53149 2.02797 6.66397 1.70879 6.89944 1.4734C7.1349 1.238 7.45411 1.10561 7.78706 1.10526H9.14363C9.2888 1.10314 9.4273 1.04398 9.52921 0.94057C9.63112 0.83716 9.68824 0.697805 9.68824 0.55262C9.68823 0.407436 9.6311 0.268083 9.52919 0.164677C9.42728 0.061271 9.28878 0.00211748 9.14361 0H7.78708C7.16109 0.000660062 6.56093 0.249598 6.11825 0.692202C5.67558 1.1348 5.42654 1.73493 5.42578 2.36091V3.26542C5.42783 3.41063 5.48696 3.5492 5.59038 3.65116C5.69379 3.75312 5.83318 3.81029 5.97841 3.81029C6.12364 3.81029 6.26303 3.75312 6.36645 3.65116C6.46986 3.5492 6.52899 3.41063 6.53104 3.26542Z" fill="#3456FF"/>
<path d="M20.4472 11.3037C20.3007 11.3037 20.1601 11.3619 20.0565 11.4656C19.9528 11.5692 19.8946 11.7098 19.8946 11.8563V13.2127C19.8942 13.5457 19.7618 13.865 19.5263 14.1005C19.2909 14.3359 18.9716 14.4684 18.6386 14.4687H17.7343C17.5877 14.4687 17.4471 14.527 17.3435 14.6306C17.2399 14.7342 17.1816 14.8748 17.1816 15.0214C17.1816 15.1679 17.2399 15.3085 17.3435 15.4121C17.4471 15.5158 17.5877 15.574 17.7343 15.574H18.6386C19.2646 15.5733 19.8648 15.3243 20.3075 14.8816C20.7502 14.439 20.9992 13.8388 20.9999 13.2127V11.8563C20.9999 11.7098 20.9416 11.5692 20.838 11.4656C20.7344 11.3619 20.5938 11.3037 20.4472 11.3037Z" fill="#3456FF"/>
<path d="M18.6388 0H17.2824C17.1372 0.00205658 16.9986 0.0611864 16.8967 0.164604C16.7947 0.268021 16.7375 0.407414 16.7375 0.552642C16.7376 0.69787 16.7947 0.837261 16.8967 0.940674C16.9986 1.04409 17.1372 1.10321 17.2824 1.10526H18.6388C18.9717 1.10561 19.291 1.238 19.5264 1.4734C19.7619 1.70879 19.8944 2.02797 19.8948 2.36091V3.71767C19.8948 3.86423 19.953 4.0048 20.0567 4.10844C20.1603 4.21207 20.3009 4.2703 20.4474 4.2703C20.594 4.2703 20.7346 4.21207 20.8382 4.10844C20.9419 4.0048 21.0001 3.86423 21.0001 3.71767V2.36091C20.9993 1.73493 20.7503 1.13481 20.3076 0.692208C19.8649 0.249605 19.2648 0.000664937 18.6388 0Z" fill="#3456FF"/>
<path d="M14.5696 1.10526C14.7148 1.10314 14.8533 1.04398 14.9552 0.94057C15.0571 0.83716 15.1142 0.697805 15.1142 0.55262C15.1142 0.407436 15.0571 0.268083 14.9551 0.164677C14.8532 0.061271 14.7147 0.00211748 14.5696 0H11.8566C11.7115 0.00212329 11.5729 0.0612824 11.471 0.164692C11.3691 0.268102 11.312 0.407458 11.312 0.552642C11.312 0.697827 11.3691 0.83718 11.4711 0.940586C11.573 1.04399 11.7115 1.10315 11.8566 1.10526H14.5696Z" fill="#3456FF"/>
<path d="M20.4472 5.87793C20.3006 5.87794 20.16 5.93616 20.0564 6.0398C19.9528 6.14344 19.8945 6.284 19.8945 6.43056V9.14335C19.8967 9.28851 19.9558 9.42702 20.0592 9.52892C20.1626 9.63083 20.302 9.68795 20.4472 9.68795C20.5924 9.68795 20.7317 9.63082 20.8351 9.52891C20.9385 9.427 20.9977 9.28849 20.9998 9.14332V6.43056C20.9998 6.284 20.9416 6.14344 20.8379 6.0398C20.7343 5.93616 20.5937 5.87794 20.4472 5.87793Z" fill="#3456FF"/>
<path d="M4.10272 13.7655H7.2343V16.8971C7.23642 17.0423 7.29558 17.1808 7.39899 17.2827C7.5024 17.3846 7.64176 17.4417 7.78694 17.4417C7.93213 17.4417 8.07148 17.3846 8.17489 17.2827C8.27829 17.1808 8.33745 17.0423 8.33956 16.8971V13.7655H11.4711C11.6177 13.7655 11.7583 13.7073 11.8619 13.6037C11.9655 13.5 12.0238 13.3595 12.0238 13.2129C12.0238 13.0663 11.9655 12.9258 11.8619 12.8221C11.7583 12.7185 11.6177 12.6603 11.4711 12.6603H8.33956V9.52871C8.33956 9.38214 8.28134 9.24157 8.1777 9.13794C8.07406 9.0343 7.9335 8.97607 7.78693 8.97607C7.64037 8.97607 7.4998 9.0343 7.39616 9.13794C7.29252 9.24157 7.2343 9.38214 7.2343 9.52871V12.6603H4.10272C3.95756 12.6624 3.81905 12.7216 3.71714 12.825C3.61523 12.9284 3.55811 13.0677 3.55811 13.2129C3.55811 13.3581 3.61523 13.4975 3.71714 13.6009C3.81905 13.7043 3.95756 13.7634 4.10272 13.7655Z" fill="#3456FF"/>
</svg>
