<svg width="19" height="19" viewBox="0 0 19 19" fill="none" xmlns="http://www.w3.org/2000/svg">
<mask id="mask0_955_1911" style="mask-type:alpha" maskUnits="userSpaceOnUse" x="0" y="0" width="19" height="19">
<circle cx="9.09918" cy="9.62506" r="8.94" fill="white"/>
</mask>
<g mask="url(#mask0_955_1911)">
<path d="M-3.39038 18.5527L10.2168 9.63767L-3.39038 0.722656C-3.49509 0.80982 -3.56567 0.936123 -3.56567 1.08299V18.1923C-3.56567 18.3392 -3.49509 18.4655 -3.39038 18.5527Z" fill="#41479B"/>
<path d="M-3.39062 18.5527C-3.30825 18.6213 -3.20623 18.6676 -3.09069 18.6676H23.5238C23.7863 18.6676 23.9991 18.4548 23.9991 18.1923V9.6377H10.2166L-3.39062 18.5527Z" fill="#FF4B55"/>
<path d="M-3.39062 0.7228C-3.30825 0.654211 -3.20623 0.60791 -3.09069 0.60791H23.5238C23.7863 0.60791 23.9991 0.820731 23.9991 1.08319V9.63782H10.2166L-3.39062 0.7228Z" fill="#F5F5F5"/>
</g>
</svg>
