<svg width="91" height="55" viewBox="0 0 91 55" fill="none" xmlns="http://www.w3.org/2000/svg">
<path d="M58.7991 36.4369C57.1612 36.8742 55.0274 37.0905 53.1724 37.0905C48.4108 37.0905 45.2578 34.535 45.2578 29.8576C45.2578 25.4308 48.1945 22.5632 52.4926 22.5632C53.4507 22.5632 54.4704 22.6862 55.0892 22.9991V16.5732H58.7991V36.4369ZM55.0892 26.3035C54.5016 26.023 53.729 25.867 52.8001 25.867C50.5448 25.867 49.0293 27.2707 49.0293 29.7334C49.0293 32.3842 50.6675 33.8813 53.2957 33.8813C53.7596 33.8813 54.4704 33.8493 55.0892 33.7253V26.3035ZM89.2425 36.4369C87.6032 36.8742 85.47 37.0905 83.6149 37.0905C78.8541 37.0905 75.6993 34.535 75.6993 29.8576C75.6993 25.4308 78.6373 22.5632 82.9355 22.5632C83.8938 22.5632 84.914 22.6862 85.5325 22.9991V16.5732H89.2425V36.4369ZM85.5325 26.3035C84.9443 26.023 84.1713 25.867 83.2441 25.867C80.9874 25.867 79.4727 27.2707 79.4727 29.7334C79.4727 32.3842 81.1109 33.8813 83.7391 33.8813C84.2023 33.8813 84.9138 33.8493 85.5325 33.7253V26.3035ZM64.6335 26.2729C65.2514 26.0229 66.1158 25.9302 66.8577 25.9302C69.1462 25.9302 70.7231 27.2705 70.7231 29.6705C70.7231 32.5017 68.9765 33.782 66.6411 33.8151V37.0886C66.7023 37.0886 66.7647 37.0908 66.8277 37.0908C71.619 37.0908 74.4953 34.3792 74.4953 29.5464C74.4953 25.1501 71.4348 22.5632 66.9206 22.5632C64.6333 22.5632 62.3753 23.0933 60.8917 23.7163V42.3938H64.6335V26.2729Z" fill="#414042"/>
<path d="M25.1365 25.4474C24.9838 25.5365 24.7443 25.5296 24.5953 25.4372L23.7178 24.915C23.6464 24.8707 23.5808 24.7998 23.5313 24.7145C23.5285 24.7097 23.5255 24.7046 23.5226 24.6995C23.4665 24.608 23.4347 24.5114 23.4314 24.4228L23.409 23.3985C23.4025 23.2259 23.5161 23.0156 23.6695 22.9259L34.2185 16.7725L19.4153 8.69422C19.2523 8.60367 19.0373 8.55996 18.8221 8.55957C18.6067 8.55918 18.3913 8.60407 18.2281 8.69422L3.42473 16.7727L20.0083 26.4391C20.162 26.5232 20.2788 26.7229 20.2788 26.9032V41.0046C20.2788 41.1816 20.1523 41.3851 19.9975 41.4679L19.105 41.964C19.0309 42.0035 18.9366 42.0247 18.838 42.0247C18.8323 42.0247 18.8266 42.0247 18.8209 42.0247C18.7138 42.0272 18.6143 42.006 18.5363 41.964L17.6409 41.4676C17.4888 41.3866 17.3644 41.1822 17.3644 41.0046L17.3646 28.4339C17.3566 28.3418 17.2893 28.2295 17.2156 28.1872L2.60506 19.6713V36.3514C2.60506 36.7246 2.8678 37.1851 3.18992 37.3737L18.2372 46.2594C18.3981 46.3538 18.61 46.4008 18.8217 46.4001C19.0336 46.3995 19.2455 46.3552 19.406 46.2596L34.4557 37.3737C34.7766 37.1832 35.0388 36.7252 35.0383 36.3514V19.6714L25.1365 25.4474Z" fill="url(#paint0_linear_326_169)"/>
<defs>
<linearGradient id="paint0_linear_326_169" x1="6.97544" y1="40.6718" x2="20.8888" y2="29.0292" gradientUnits="userSpaceOnUse">
<stop stop-color="#A90034"/>
<stop offset="0.2717" stop-color="#BB0033"/>
<stop offset="0.7226" stop-color="#D30032"/>
<stop offset="1" stop-color="#DC0032"/>
</linearGradient>
</defs>
</svg>
