<svg width="31" height="31" viewBox="0 0 31 31" fill="none" xmlns="http://www.w3.org/2000/svg">
<path d="M14.091 11.9774V13.3865H12.6819V15.5001H14.091V21.841H16.9091V15.5001H18.7833L19.0228 13.3865H16.9091V12.1535C16.9091 11.5829 16.9655 11.2799 17.8462 11.2799H19.0228V9.15918H17.1346C14.8801 9.15924 14.091 10.216 14.091 11.9774Z" fill="#46D9FF"/>
<path d="M15.5 0C6.93958 0 0 6.93958 0 15.5C0 24.0604 6.93958 31 15.5 31C24.0604 31 31 24.0604 31 15.5C31 6.93958 24.0604 0 15.5 0ZM15.5 29.5909C7.71779 29.5909 1.40911 23.2822 1.40911 15.5C1.40911 7.71779 7.71779 1.40911 15.5 1.40911C23.2822 1.40911 29.5909 7.71779 29.5909 15.5C29.5909 23.2822 23.2822 29.5909 15.5 29.5909Z" fill="#46D9FF"/>
</svg>
