<svg width="90" height="28" viewBox="0 0 90 28" fill="none" xmlns="http://www.w3.org/2000/svg">
<g clip-path="url(#clip0_326_172)">
<mask id="mask0_326_172" style="mask-type:luminance" maskUnits="userSpaceOnUse" x="0" y="0" width="90" height="28">
<path d="M89.8645 0H0V27.5095H89.8645V0Z" fill="white"/>
</mask>
<g mask="url(#mask0_326_172)">
<path d="M81.9145 26.5433L78.2337 22.4184L74.5848 26.5433H66.9078L74.4111 18.1198L66.9078 9.69379H74.8246L78.5429 13.787L82.1207 9.69379H89.7605L82.2944 18.0844L89.8645 26.5433H81.9145ZM52.1653 26.5433V0H66.9078V5.91643H58.4099V9.69379H66.9078V15.3869H58.4099V20.612H66.9078V26.5433H52.1653Z" fill="#FF5A00"/>
<path d="M45.9446 0V10.8629H45.8755C44.4987 9.28175 42.7778 8.73069 40.7824 8.73069C36.6935 8.73069 33.613 11.5102 32.5319 15.1821C31.2986 11.1354 28.1182 8.65497 23.4033 8.65497C19.5733 8.65497 16.5501 10.3721 14.9708 13.1708V9.69318H7.05564V5.91707H15.6943V0.00124281H0V26.5433H7.05564V15.3869H14.0883C13.8717 16.2447 13.7634 17.1264 13.766 18.0112C13.766 23.5454 17.9983 27.4345 23.402 27.4345C27.9443 27.4345 30.9402 25.3016 32.5232 21.4187H26.4762C25.6589 22.5872 25.0379 22.9323 23.4027 22.9323C21.5072 22.9323 19.8714 21.2791 19.8714 19.3218H32.1842C32.7182 23.7185 36.1463 27.5095 40.8515 27.5095C42.8808 27.5095 44.7391 26.5123 45.8748 24.8275H45.9432V26.547H52.1643V0.00124281H45.9446V0ZM20.0676 15.4663C20.4608 13.7796 21.7693 12.6775 23.4027 12.6775C25.2012 12.6775 26.4433 13.7455 26.7693 15.4663H20.0676ZM42.1692 22.5041C39.877 22.5041 38.4523 20.37 38.4523 18.1409C38.4523 15.7579 39.6919 13.4687 42.1692 13.4687C44.7398 13.4687 45.7638 15.7592 45.7638 18.1409C45.7638 20.3985 44.6794 22.5041 42.1692 22.5041Z" fill="#29007C"/>
</g>
</g>
<defs>
<clipPath id="clip0_326_172">
<rect width="89.8645" height="27.5095" fill="white"/>
</clipPath>
</defs>
</svg>
