<svg width="87" height="40" viewBox="0 0 87 40" fill="none" xmlns="http://www.w3.org/2000/svg">
<path d="M75.0561 31.441C77.1985 31.441 78.9354 29.6989 78.9354 27.5501C78.9354 25.4012 77.1985 23.6592 75.0561 23.6592C72.9139 23.6592 71.1773 25.4012 71.1773 27.5501C71.1773 29.6989 72.9139 31.441 75.0561 31.441Z" fill="#FFD100"/>
<path d="M19.776 18.9089V23.9998H23.9985C23.3816 24.9709 21.9906 25.4883 21.0475 25.4883C17.8691 25.4883 16.28 23.6711 16.28 20.0041C16.28 15.9548 18.3775 13.8827 22.5415 13.8827C24.1942 13.8827 26.3559 14.2969 28.6759 15.0307V8.94107C28.0079 8.65425 26.9914 8.43123 25.6881 8.20735C24.3531 7.98425 23.1767 7.88867 22.1594 7.88867C18.0271 7.88867 14.7535 9.00479 12.3066 11.2362C9.85886 13.4685 8.61911 16.4654 8.61911 20.2599C8.61911 23.7348 9.573 26.4769 11.4798 28.4861C13.3867 30.5264 15.9615 31.5469 19.2035 31.5469C22.4587 31.5469 25.4499 29.8521 26.4137 27.7005L26.3928 31.1637H31.1018V18.9089H19.776Z" fill="#061AB1"/>
<path d="M33.4525 31.1601V8.26758H40.7632V25.198H48.7409V31.1601H33.4525Z" fill="#061AB1"/>
<path d="M51.4104 30.59V24.3412C52.4913 24.6917 53.7629 24.9785 55.1932 25.2343C56.6236 25.4892 57.8633 25.6166 58.9125 25.6166C60.6923 25.6166 61.6144 25.1705 61.6144 24.373C61.6144 23.8632 61.3284 23.6073 60.0251 23.3206L57.4821 22.7471C53.1276 21.7583 51.0936 19.5588 51.0936 15.8282C51.0936 13.3728 51.9522 11.4283 53.6367 9.99346C55.3195 8.58974 57.672 7.88867 60.628 7.88867C62.6618 7.88867 65.7776 8.30293 67.6843 8.78177V14.7438C66.6987 14.4889 65.5234 14.2341 64.0931 14.0102C62.6628 13.7871 61.55 13.6915 60.724 13.6915C59.1667 13.6915 58.2763 14.1376 58.2763 14.9351C58.2763 15.413 58.6892 15.7325 59.5478 15.9556L62.5039 16.6566C66.8268 17.6772 68.8288 19.9085 68.8288 23.703C68.8288 26.1265 67.9386 28.0392 66.1905 29.4421C64.4425 30.8451 62.0265 31.5459 58.9435 31.5459C56.0191 31.5459 53.0631 31.1318 51.4104 30.59Z" fill="#061AB1"/>
</svg>
