<svg width="31" height="31" viewBox="0 0 31 31" fill="none" xmlns="http://www.w3.org/2000/svg">
<path d="M15.5 0C6.93958 0 0 6.93958 0 15.5C0 24.0604 6.93958 31 15.5 31C24.0604 31 31 24.0604 31 15.5C31 6.93958 24.0604 0 15.5 0ZM15.5 29.5909C7.71779 29.5909 1.40911 23.2822 1.40911 15.5C1.40911 7.71779 7.71779 1.40911 15.5 1.40911C23.2822 1.40911 29.5909 7.71779 29.5909 15.5C29.5909 23.2822 23.2822 29.5909 15.5 29.5909Z" fill="#46D9FF"/>
<path d="M21.9764 20.6152V16.2472C21.9764 13.9067 20.7124 12.818 19.0272 12.818C17.6676 12.818 17.0584 13.5571 16.7187 14.0762V12.9973H14.157C14.1908 13.7119 14.157 20.6152 14.157 20.6152H16.7187V16.3605C16.7187 16.1331 16.7352 15.9057 16.8036 15.7436C16.9883 15.2888 17.4096 14.8178 18.117 14.8178C19.0445 14.8178 19.4147 15.5162 19.4147 16.5397V20.6152H21.9764ZM11.4585 11.9574C12.3514 11.9574 12.9079 11.3723 12.9079 10.6405C12.8914 9.8932 12.3514 9.3252 11.475 9.3252C10.5986 9.3252 10.0264 9.8932 10.0264 10.6405C10.0264 11.3715 10.5829 11.9574 11.442 11.9574H11.4585ZM12.7389 20.6152V12.9973H10.1781V20.6152H12.7389Z" fill="#46D9FF"/>
</svg>
