<svg width="229" height="37" viewBox="0 0 229 37" fill="none" xmlns="http://www.w3.org/2000/svg">
<path d="M5.84743 2.52002C2.62127 2.52002 0 5.14126 0 8.36742C0 11.5936 2.62127 14.2148 5.84743 14.2148C6.20029 14.2148 6.50273 14.2148 6.80518 14.114L5.54496 12.0473C3.62943 11.896 2.06678 10.283 2.06678 8.31702C2.06678 6.35108 3.73026 4.53637 5.84743 4.53637C7.9646 4.53637 9.62808 6.19986 9.62808 8.31702C9.62808 8.51866 9.62807 8.72028 9.57766 8.92192L11.4932 10.0813C11.6948 9.52683 11.7452 8.92192 11.7452 8.26661C11.7452 5.14127 9.124 2.52002 5.84743 2.52002Z" fill="#6C6CFF"/>
<path d="M25.0531 2.52002C21.8269 2.52002 19.1553 5.14126 19.1553 8.36742C19.1553 9.02273 19.2561 9.62764 19.4577 10.1821L21.3733 9.02274C21.3229 8.82111 21.3228 8.61946 21.3228 8.36742C21.3228 6.30066 22.9863 4.58676 25.0531 4.58676C27.1199 4.58676 28.8338 6.25025 28.8338 8.36742C28.8338 10.3334 27.3215 11.9465 25.406 12.0977L24.1457 14.1644C24.4482 14.2148 24.7506 14.2148 25.1035 14.2148C28.3297 14.2148 30.9509 11.5936 30.9509 8.36742C30.9509 5.14126 28.3297 2.52002 25.0531 2.52002Z" fill="#6C6CFF"/>
<path d="M11.5435 26.9687L9.62795 28.1785C9.62795 28.3298 9.67835 28.481 9.67835 28.5818C9.67835 30.6485 8.01486 32.3624 5.89769 32.3624C3.83093 32.3624 2.16743 30.699 2.16743 28.5818C2.16743 26.4646 3.78053 24.902 5.74647 24.8515L7.00669 22.8352C6.65383 22.7848 6.30096 22.7344 5.89769 22.7344C2.67153 22.7344 0.050293 25.3556 0.050293 28.5818C0.050293 31.8079 2.67153 34.4292 5.89769 34.4292C9.12385 34.4292 11.7955 31.8079 11.7955 28.5818C11.7451 28.0273 11.6443 27.4728 11.5435 26.9687Z" fill="#6C6CFF"/>
<path d="M25.0531 22.6836C24.7002 22.6836 24.3474 22.734 23.9945 22.7844L25.2547 24.8008C27.2207 24.9016 28.8338 26.5651 28.8338 28.531C28.8338 30.4969 27.1703 32.3116 25.0531 32.3116C22.9863 32.3116 21.3228 30.6482 21.3228 28.531C21.3228 28.3798 21.3228 28.2285 21.3228 28.0773L19.4073 26.8675C19.2561 27.3716 19.1553 27.9261 19.1553 28.4806C19.1553 31.7068 21.7765 34.328 25.0531 34.328C28.3297 34.328 30.9509 31.7068 30.9509 28.4806C30.9509 25.2544 28.2793 22.6836 25.0531 22.6836Z" fill="#6C6CFF"/>
<path d="M26.1624 28.5314C26.4144 28.9347 26.1119 29.3884 25.7087 29.3884C25.6079 29.3884 25.5071 29.3884 25.4062 29.2876L21.676 26.9688L19.8613 25.8598L16.2822 23.6418C16.0302 23.4906 15.7782 23.4402 15.4757 23.4402C15.2237 23.4402 14.9212 23.4906 14.6692 23.6418L11.0397 25.8598L9.22502 26.9688L5.49479 29.2876C5.39397 29.338 5.29314 29.3884 5.19232 29.3884C4.78905 29.3884 4.48661 28.9347 4.73866 28.5314L6.90623 25.0028L8.06562 23.1881L10.3844 19.4075C10.6869 18.9034 10.6869 18.2985 10.3844 17.8448L7.9648 13.9129L6.8054 12.0478L4.73866 8.67042C4.48661 8.26715 4.83946 7.81348 5.19232 7.81348C5.29314 7.81348 5.39397 7.81347 5.49479 7.91428L9.12422 10.1827L10.9389 11.2917L14.6188 13.5601C14.8708 13.7113 15.1229 13.7617 15.4253 13.7617C15.6774 13.7617 15.9798 13.7113 16.2318 13.5601L19.9117 11.2917L21.7264 10.1827L25.4062 7.91428C25.5071 7.86388 25.6079 7.81348 25.7087 7.81348C26.1119 7.81348 26.4144 8.26715 26.1624 8.67042L24.0956 12.0478L22.9362 13.9129L20.5166 17.8448C20.2141 18.3489 20.2141 18.9538 20.5166 19.4075L22.8354 23.1881L23.9948 25.0028L26.1624 28.5314Z" fill="#6C6CFF"/>
<path d="M36.9497 22.4823H41.5873C41.8898 24.4483 43.5533 25.6077 45.8217 25.6077C48.0901 25.6077 49.6023 24.7507 49.6023 23.1376C49.6023 21.5246 48.4429 20.9701 45.6704 20.5668L43.7549 20.2643C39.2685 19.5082 37.4538 17.6935 37.4538 14.2657C37.4538 10.485 40.932 8.06543 45.4688 8.06543C50.3584 8.06543 53.7862 11.0899 53.9375 14.7698H49.2494C49.0478 13.2071 47.6868 11.7453 45.368 11.7453C43.402 11.7453 41.8898 12.6022 41.8898 14.2153C41.8898 15.8284 43.15 16.3829 45.8217 16.7861L47.7372 17.0886C52.2236 17.8447 54.0887 19.7098 54.0887 23.0872C54.0887 26.9183 50.6105 29.2875 45.7712 29.2875C40.5791 29.3379 37.2018 26.3638 36.9497 22.4823Z" fill="white"/>
<path d="M56.71 2.62124C56.71 1.10898 57.819 0 59.3312 0C60.8435 0 61.9525 1.10898 61.9525 2.62124C61.9525 4.13351 60.8435 5.19209 59.3312 5.19209C57.819 5.19209 56.71 4.13351 56.71 2.62124ZM57.0628 28.8842V8.46866H61.65V28.9346H57.0628V28.8842Z" fill="white"/>
<path d="M65.6323 28.9346V8.46869H70.0179V10.485C71.3285 8.92237 73.3953 8.06543 75.8149 8.06543C78.7386 8.06543 81.1078 9.27524 82.4688 11.594C84.0315 9.42647 86.6528 8.06543 89.7277 8.06543C94.7686 8.06543 98.2468 11.594 98.2468 17.1894V28.9346H93.6596V17.5927C93.6596 14.3161 91.8953 12.4006 88.9716 12.4006C86.0478 12.4006 84.2332 14.4169 84.2332 17.5927V28.9346H79.6459V17.5927C79.6459 14.3161 77.8816 12.4006 74.9579 12.4006C72.0342 12.4006 70.1691 14.4169 70.1691 17.5927V28.9346H65.6323Z" fill="white"/>
<path d="M102.027 37V8.46869H106.413V11.1908C107.925 9.22482 110.345 8.06543 113.268 8.06543C119.116 8.06543 123.602 12.703 123.602 18.7017C123.602 24.7003 119.166 29.3379 113.268 29.3379C110.496 29.3379 108.177 28.2793 106.615 26.4142V37H102.027ZM118.965 18.7017C118.965 14.9714 116.343 12.3502 112.764 12.3502C109.185 12.3502 106.564 14.9714 106.564 18.7017C106.564 22.4319 109.185 25.0028 112.764 25.0028C116.343 25.0028 118.965 22.3311 118.965 18.7017Z" fill="white"/>
<path d="M126.123 28.9345V0.453613H130.71V28.9345H126.123Z" fill="white"/>
<path d="M133.281 18.7017C133.281 12.703 137.868 8.06543 143.665 8.06543C149.462 8.06543 153.898 12.5014 153.898 18.6009C153.898 19.1049 153.898 19.609 153.797 20.1131H137.818C138.372 23.4401 140.691 25.3556 143.867 25.3556C146.437 25.3556 148.353 24.0954 149.26 22.1295H153.948C152.386 26.5654 148.403 29.3379 143.867 29.3379C137.868 29.3379 133.281 24.5995 133.281 18.7017ZM137.918 16.7357H149.21C148.857 13.9632 146.689 11.9973 143.615 11.9973C140.741 11.9973 138.574 13.7616 137.918 16.7357Z" fill="white"/>
<path d="M155.562 22.4823H160.199C160.502 24.4483 162.115 25.6077 164.433 25.6077C166.752 25.6077 168.164 24.7507 168.164 23.1376C168.164 21.5246 167.004 20.9701 164.232 20.5668L162.316 20.2643C157.83 19.5082 156.015 17.6935 156.015 14.2657C156.015 10.485 159.493 8.06543 164.03 8.06543C168.92 8.06543 172.348 11.0899 172.499 14.7698H167.861C167.66 13.2071 166.299 11.7453 163.98 11.7453C162.014 11.7453 160.502 12.6022 160.502 14.2153C160.502 15.8284 161.762 16.3829 164.433 16.7861L166.349 17.0886C170.835 17.8447 172.7 19.7098 172.7 23.0872C172.7 26.9183 169.222 29.2875 164.383 29.2875C159.241 29.3379 155.814 26.3638 155.562 22.4823Z" fill="#6C6CFF"/>
<path d="M175.675 28.9345V0.453613H180.262V10.5354C181.522 8.97269 183.538 8.06533 186.059 8.06533C191.15 8.06533 194.729 11.6443 194.729 17.2901V28.9345H190.142V17.6934C190.142 14.3664 188.327 12.4005 185.353 12.4005C182.379 12.4005 180.262 14.4672 180.262 17.6934V28.9345H175.675Z" fill="#6C6CFF"/>
<path d="M198.106 2.62124C198.106 1.10898 199.215 0 200.728 0C202.24 0 203.349 1.10898 203.349 2.62124C203.349 4.13351 202.24 5.19209 200.728 5.19209C199.266 5.2425 198.106 4.13351 198.106 2.62124ZM198.459 28.8842V8.46866H203.046V28.9346H198.459V28.8842Z" fill="#6C6CFF"/>
<path d="M207.029 37V8.46869H211.414V11.1908C212.927 9.22482 215.397 8.06543 218.27 8.06543C224.117 8.06543 228.553 12.703 228.553 18.7017C228.553 24.7003 224.117 29.3379 218.27 29.3379C215.497 29.3379 213.179 28.2793 211.616 26.4142V37H207.029ZM223.966 18.7017C223.966 14.9714 221.345 12.3502 217.766 12.3502C214.187 12.3502 211.566 14.9714 211.566 18.7017C211.566 22.4319 214.187 25.0028 217.766 25.0028C221.345 25.0028 223.966 22.3311 223.966 18.7017Z" fill="#6C6CFF"/>
</svg>
