<svg width="98" height="52" viewBox="0 0 98 52" fill="none" xmlns="http://www.w3.org/2000/svg">
<path d="M0.0471191 7.89551C0.0471191 4.02951 3.18113 0.895508 7.04712 0.895508H90.6508C94.5168 0.895508 97.6508 4.02952 97.6508 7.89551V44.0405C97.6508 47.9065 94.5168 51.0405 90.6508 51.0405H7.04712C3.18112 51.0405 0.0471191 47.9065 0.0471191 44.0405V7.89551Z" fill="#172654"/>
<mask id="mask0_955_373" style="mask-type:luminance" maskUnits="userSpaceOnUse" x="35" y="15" width="29" height="21">
<path d="M63.6597 15.0654H35.865V35.9562H63.6597V15.0654Z" fill="white"/>
</mask>
<g mask="url(#mask0_955_373)">
<path d="M40.9215 35.9027V34.5136C40.9215 33.9873 40.5849 33.64 40.0212 33.64C39.7352 33.64 39.4155 33.7348 39.2052 34.0294C39.0369 33.7768 38.8014 33.64 38.4396 33.64C38.204 33.64 37.96 33.7138 37.7749 33.9663V33.6926H37.2786V35.9027H37.7749V34.6819C37.7749 34.2925 37.9937 34.1031 38.3218 34.1031C38.6499 34.1031 38.8182 34.3136 38.8182 34.6819V35.9027H39.323V34.6819C39.323 34.2925 39.5586 34.1031 39.8614 34.1031C40.2064 34.1031 40.3662 34.3136 40.3662 34.6819V35.9027H40.9215ZM48.3421 33.6822H47.5261V33.0086H47.0297V33.6822H46.5753V34.1242H47.0297V35.1451C47.0297 35.6502 47.2484 35.9554 47.8121 35.9554C48.0308 35.9554 48.2664 35.8817 48.4347 35.7975L48.2917 35.3766C48.1487 35.4713 47.972 35.4923 47.8542 35.4923C47.6186 35.4923 47.5176 35.3555 47.5176 35.1239V34.1347H48.3337V33.6822H48.3421ZM52.591 33.64C52.3133 33.64 52.1198 33.7768 51.9936 33.9663V33.6926H51.4972V35.9027H51.9936V34.6504C51.9936 34.2821 52.1619 34.0716 52.4732 34.0716C52.5741 34.0716 52.6919 34.0926 52.7929 34.1136L52.9275 33.6506C52.835 33.64 52.6919 33.64 52.591 33.64ZM46.1715 33.8716C45.9275 33.7138 45.591 33.64 45.2376 33.64C44.6571 33.64 44.2785 33.9137 44.2785 34.3557C44.2785 34.7241 44.5646 34.9346 45.061 34.9977L45.2965 35.0187C45.5573 35.0608 45.7003 35.1345 45.7003 35.2503C45.7003 35.4081 45.5068 35.5239 45.1787 35.5239C44.8506 35.5239 44.5814 35.4081 44.4216 35.2924L44.1775 35.6607C44.4383 35.8501 44.8002 35.9343 45.1619 35.9343C45.8182 35.9343 46.2136 35.6291 46.2136 35.2187C46.2136 34.8293 45.9023 34.6188 45.4311 34.5452L45.1955 34.5241C44.9768 34.503 44.8085 34.4504 44.8085 34.3136C44.8085 34.1558 44.9768 34.061 45.2461 34.061C45.5321 34.061 45.8181 34.1768 45.9612 34.2505L46.1715 33.8716ZM59.4815 33.64C59.2039 33.64 59.0104 33.7768 58.8842 33.9663V33.6926H58.3878V35.9027H58.8842V34.6504C58.8842 34.2821 59.0525 34.0716 59.3638 34.0716C59.4648 34.0716 59.5826 34.0926 59.6835 34.1136L59.8265 33.6506C59.7255 33.64 59.5825 33.64 59.4815 33.64ZM53.0957 34.7977C53.0957 35.4713 53.5754 35.9554 54.3157 35.9554C54.6523 35.9554 54.8878 35.8817 55.1234 35.7028L54.8878 35.3134C54.6943 35.4502 54.5092 35.5239 54.2905 35.5239C53.8866 35.5239 53.5921 35.2503 53.5921 34.8083C53.5921 34.3873 53.8782 34.1136 54.2905 34.0926C54.5092 34.0926 54.6943 34.1662 54.8878 34.3031L55.1234 33.9137C54.8878 33.7242 54.6523 33.6611 54.3157 33.6611C53.5754 33.64 53.0957 34.1242 53.0957 34.7977ZM57.7231 34.7977V33.6926H57.2268V33.9663C57.0585 33.7558 56.8229 33.64 56.5032 33.64C55.8638 33.64 55.3674 34.1242 55.3674 34.7977C55.3674 35.4713 55.8638 35.9554 56.5032 35.9554C56.8482 35.9554 57.0837 35.8396 57.2268 35.6291V35.9027H57.7231V34.7977ZM55.8891 34.7977C55.8891 34.4083 56.1498 34.082 56.5873 34.082C56.9828 34.082 57.2772 34.3873 57.2772 34.7977C57.2772 35.1871 56.9996 35.5133 56.5873 35.5133C56.1498 35.4923 55.8891 35.1871 55.8891 34.7977ZM49.8987 33.64C49.234 33.64 48.7544 34.1031 48.7544 34.7977C48.7544 35.4923 49.234 35.9554 49.9323 35.9554C50.2688 35.9554 50.5969 35.8607 50.8662 35.6502L50.6307 35.3029C50.4287 35.4397 50.1931 35.5345 49.966 35.5345C49.6463 35.5345 49.3434 35.3976 49.2677 35.0082H50.9671V34.8188C50.9755 34.1031 50.5381 33.64 49.8987 33.64ZM49.8987 34.0505C50.21 34.0505 50.4203 34.2399 50.4708 34.5767H49.276C49.3181 34.2821 49.5369 34.0505 49.8987 34.0505ZM62.3337 34.7977V32.8086H61.8373V33.9663C61.669 33.7558 61.4335 33.64 61.1138 33.64C60.4743 33.64 59.978 34.1242 59.978 34.7977C59.978 35.4713 60.4743 35.9554 61.1138 35.9554C61.4503 35.9554 61.6943 35.8396 61.8373 35.6291V35.9027H62.3337V34.7977ZM60.4828 34.7977C60.4828 34.4083 60.7435 34.082 61.181 34.082C61.5849 34.082 61.8794 34.3873 61.8794 34.7977C61.8794 35.1871 61.5933 35.5133 61.181 35.5133C60.7604 35.4923 60.4828 35.1871 60.4828 34.7977ZM43.7316 34.7977V33.6926H43.2352V33.9663C43.0754 33.7558 42.8314 33.64 42.5201 33.64C41.8723 33.64 41.3759 34.1242 41.3759 34.7977C41.3759 35.4713 41.8723 35.9554 42.5201 35.9554C42.8566 35.9554 43.0922 35.8396 43.2352 35.6291V35.9027H43.7316V34.7977ZM41.8723 34.7977C41.8723 34.4083 42.133 34.082 42.5705 34.082C42.9744 34.082 43.2689 34.3873 43.2689 34.7977C43.2689 35.1871 42.9828 35.5133 42.5705 35.5133C42.133 35.4923 41.8723 35.1871 41.8723 34.7977Z" fill="white"/>
<path d="M53.5331 16.8438H46.0032V29.9255H53.5331V16.8438Z" fill="#FF5F00"/>
<path d="M46.4827 23.3797C46.4827 20.7275 47.7784 18.3701 49.7556 16.844C48.3 15.739 46.4659 15.0654 44.4551 15.0654C39.7015 15.0654 35.865 18.7805 35.865 23.3797C35.865 27.9788 39.7015 31.6939 44.4551 31.6939C46.449 31.6939 48.2916 31.0203 49.7471 29.9152C47.77 28.4208 46.4827 26.0423 46.4827 23.3797Z" fill="#EB001B"/>
<path d="M63.6629 23.3797C63.6629 27.9788 59.8263 31.6939 55.0727 31.6939C53.0703 31.6939 51.2363 31.0203 49.7808 29.9152C51.7747 28.3892 53.0536 26.0318 53.0536 23.3797C53.0536 20.7275 51.7579 18.3701 49.7808 16.844C51.2363 15.739 53.0703 15.0654 55.0727 15.0654C59.8263 15.0654 63.6629 18.8121 63.6629 23.3797Z" fill="#F79E1B"/>
</g>
</svg>
