<svg width="17" height="17" viewBox="0 0 17 17" fill="none" xmlns="http://www.w3.org/2000/svg">
<path d="M0 2.38645V14.8149C0.000687848 15.3944 0.231197 15.95 0.640963 16.3597C1.05073 16.7695 1.6063 17 2.18579 17.0007H14.6142C15.1937 17 15.7493 16.7695 16.159 16.3597C16.5688 15.95 16.7993 15.3944 16.8 14.8149V2.38645C16.7993 1.80696 16.5688 1.2514 16.159 0.841641C15.7493 0.431879 15.1937 0.201371 14.6142 0.200684H2.18579C1.6063 0.201371 1.05073 0.431879 0.640963 0.841641C0.231197 1.2514 0.000687848 1.80696 0 2.38645ZM15.6077 2.38645V14.8149C15.6075 15.0783 15.5027 15.3309 15.3164 15.5171C15.1302 15.7034 14.8776 15.8082 14.6142 15.8084H2.18579C1.92237 15.8082 1.66982 15.7034 1.48356 15.5171C1.29729 15.3309 1.19253 15.0783 1.19225 14.8149V2.38645C1.19253 2.12304 1.29729 1.87049 1.48356 1.68423C1.66982 1.49796 1.92237 1.3932 2.18579 1.39292H14.6142C14.8776 1.3932 15.1302 1.49796 15.3164 1.68423C15.5027 1.87049 15.6075 2.12304 15.6077 2.38645Z" fill="#3456FF"/>
<path d="M4.42586 9.19664H7.8039V12.5746C7.80619 12.7312 7.87001 12.8806 7.98156 12.9906C8.09311 13.1005 8.24343 13.1621 8.40004 13.1621C8.55665 13.1621 8.70697 13.1005 8.81852 12.9906C8.93006 12.8806 8.99387 12.7312 8.99615 12.5746V9.19664H12.3742C12.5323 9.19664 12.6839 9.13383 12.7957 9.02204C12.9075 8.91025 12.9703 8.75862 12.9703 8.60052C12.9703 8.44242 12.9075 8.29079 12.7957 8.179C12.6839 8.06721 12.5323 8.0044 12.3742 8.0044H8.99615V4.62639C8.99615 4.46829 8.93335 4.31667 8.82155 4.20487C8.70976 4.09308 8.55813 4.03027 8.40003 4.03027C8.24193 4.03027 8.0903 4.09308 7.9785 4.20487C7.86671 4.31667 7.8039 4.46829 7.8039 4.62639V8.0044H4.42586C4.26927 8.00669 4.11986 8.0705 4.00993 8.18204C3.9 8.29359 3.83838 8.44391 3.83838 8.60052C3.83838 8.75713 3.9 8.90745 4.00993 9.019C4.11986 9.13054 4.26927 9.19435 4.42586 9.19664Z" fill="#3456FF"/>
</svg>
