<svg width="98" height="52" viewBox="0 0 98 52" fill="none" xmlns="http://www.w3.org/2000/svg">
<path d="M0.39624 7.89551C0.39624 4.02951 3.53025 0.895508 7.39624 0.895508H90.9999C94.8659 0.895508 97.9999 4.02952 97.9999 7.89551V44.0405C97.9999 47.9065 94.8659 51.0405 90.9999 51.0405H7.39624C3.53025 51.0405 0.39624 47.9065 0.39624 44.0405V7.89551Z" fill="#172654"/>
<path d="M37.3016 22.1783C37.1509 21.8601 36.9125 21.5976 36.6166 21.4006C36.308 21.2016 35.9436 21.0622 35.5272 20.9795C35.1034 20.8987 34.6139 20.8622 34.0468 20.8564L31.4286 20.8584C31.1564 20.8622 30.8898 21.0852 30.8258 21.3621L29.0642 29.4392C29.0003 29.7123 29.171 29.941 29.4432 29.941H30.6971C30.9692 29.941 31.2386 29.719 31.2989 29.4392L31.729 27.4781C31.7865 27.2051 32.055 26.9773 32.3299 26.9773H32.6888C34.2221 26.9753 35.4093 26.6456 36.2623 25.9852C37.1198 25.3238 37.5427 24.4499 37.5427 23.3674C37.5417 22.8935 37.4678 22.4955 37.3016 22.1783ZM34.5975 24.8171C34.2185 25.1094 33.6916 25.2555 33.0121 25.2555H32.7053C32.4322 25.2555 32.2651 25.0286 32.3244 24.7518L32.7016 23.0367C32.7546 22.7618 33.0295 22.534 33.2989 22.5359L33.7098 22.533C34.1893 22.533 34.5555 22.6205 34.8002 22.7897C35.0422 22.957 35.1637 23.2232 35.1619 23.5761C35.1692 24.1125 34.9746 24.5249 34.5975 24.8171Z" fill="white"/>
<path d="M73.0456 21.4888L72.967 21.5138L72.862 21.5292L72.7333 21.508L72.6675 21.4407L72.6374 21.335L72.6355 21.1764V20.589H73.0547V20.4073H72.6355V20.041H72.4282V20.4073H72.2876V20.589H72.4282V21.2725L72.525 21.6109L72.81 21.7185L72.9296 21.708L73.0565 21.682V21.4888H73.0456Z" fill="white"/>
<path d="M74.9899 20.5009L74.6904 20.3711L74.4694 20.4182L74.2447 20.5778L74.1141 20.4249L73.9022 20.3721L73.6986 20.4192L73.5059 20.5499V20.4076H73.3022V21.691H73.505V20.7326L73.6758 20.621L73.8456 20.5768L73.9844 20.6028L74.0529 20.6768L74.0831 20.7998L74.0931 20.9585V21.692H74.2968V20.871L74.2931 20.8027L74.2894 20.7402L74.463 20.6239L74.6347 20.5787L74.7689 20.6047L74.842 20.6787L74.8675 20.8027L74.8812 20.9594V21.6929H75.0858V20.8595L74.9899 20.5009Z" fill="white"/>
<path d="M43.348 23.3322C42.8749 23.0515 42.1279 22.9111 41.1069 22.9111C40.6019 22.9111 40.0987 22.9525 39.59 23.0351C39.2147 23.0957 39.1782 23.1072 38.9471 23.1601C38.4704 23.2697 38.3955 23.7706 38.3955 23.7706L38.2421 24.4348C38.1553 24.8588 38.3873 24.8425 38.4841 24.8069C38.6923 24.7415 38.8083 24.6742 39.2339 24.5742C39.6403 24.4771 40.0686 24.4041 40.4083 24.4089C40.9097 24.4089 41.2932 24.4646 41.5489 24.5781C41.801 24.6934 41.927 24.8915 41.927 25.178L41.9051 25.3645L41.7243 25.4817C41.0129 25.5288 40.4987 25.5981 39.875 25.6932C39.2649 25.7826 38.7298 25.9393 38.285 26.1537C37.8074 26.3748 37.4531 26.6719 37.2056 27.0497C36.9663 27.4294 36.8467 27.8899 36.8467 28.4301C36.8467 28.9387 37.0202 29.3588 37.3572 29.6837C37.696 30.0029 38.1435 30.1586 38.6786 30.1586C39.0174 30.1567 39.2795 30.1288 39.4658 30.0817L40.0731 29.8616L40.5873 29.5616L41.0603 29.2329L41.0667 29.2425L41.0192 29.454L41.0165 29.4626V29.4645C40.9654 29.7222 41.1133 29.9337 41.3517 29.9587L41.3562 29.9644H41.3781H42.3398H42.5206L42.537 29.9567C42.7873 29.926 43.022 29.7145 43.0768 29.4626L43.9909 25.2972L44.0384 24.9578L44.0603 24.6396C44.064 24.0494 43.822 23.6119 43.348 23.3322ZM41.3261 28.0158L41.1307 28.2869L40.6375 28.5551C40.4056 28.6541 40.1855 28.7041 39.9818 28.7041C39.6731 28.7041 39.4311 28.657 39.2677 28.5609L39.0257 28.0658C39.0257 27.7976 39.0841 27.5851 39.2092 27.4217L39.7407 27.041C39.9681 26.9603 40.2457 26.892 40.5672 26.8449C40.854 26.8074 41.4202 26.7392 41.4941 26.7372L41.5809 26.8978C41.5635 26.9891 41.4028 27.6967 41.3261 28.0158Z" fill="white"/>
<path d="M66.1222 23.338C65.6464 23.0573 64.9003 22.916 63.882 22.916C63.377 22.916 62.8729 22.9574 62.366 23.0429C61.9898 23.1006 61.9523 23.1131 61.7204 23.165C61.2446 23.2736 61.1706 23.7764 61.1706 23.7764L61.0172 24.4397C60.9313 24.8637 61.1578 24.8445 61.2638 24.8118C61.4729 24.7464 61.5852 24.682 62.0071 24.5782C62.4117 24.482 62.8437 24.4109 63.1843 24.4128C63.6838 24.4128 64.0674 24.4695 64.3222 24.583C64.5761 24.6983 64.7003 24.8983 64.7003 25.1819L64.6811 25.3674L64.5021 25.4876C63.7834 25.5328 63.2683 25.602 62.651 25.6972C62.0427 25.7866 61.5058 25.9423 61.0601 26.1576C60.5843 26.3797 60.2254 26.6768 59.9807 27.0555C59.7387 27.4352 59.6208 27.8948 59.6208 28.4302C59.6208 28.9426 59.7925 29.3627 60.1341 29.6857C60.4747 30.0039 60.9176 30.1635 61.4528 30.1635C61.7898 30.1597 62.0519 30.1366 62.2391 30.0856L62.8446 29.8684L63.3633 29.5684L63.8327 29.2358L63.8409 29.2464L63.798 29.4598L63.7934 29.4637L63.7952 29.4675C63.7386 29.7251 63.8875 29.9386 64.1286 29.9616L64.1304 29.9664H64.1523C64.3103 29.9664 64.8564 29.9664 65.1167 29.9664H65.2939L65.313 29.9597C65.5605 29.928 65.7943 29.7165 65.8464 29.4617L66.7633 25.302L66.8117 24.9608L66.8381 24.6416C66.8391 24.0533 66.5998 23.6178 66.1222 23.338ZM64.1048 28.0217L63.9012 28.2956L63.4126 28.5619C63.1806 28.66 62.9596 28.7109 62.7596 28.7109C62.4409 28.7109 62.2053 28.6629 62.0464 28.5667L61.8017 28.0736C61.8017 27.8044 61.861 27.5939 61.9806 27.4276C62.1021 27.2709 62.2875 27.142 62.5176 27.0478C62.7423 26.9671 63.0199 26.9017 63.3432 26.8527C63.6281 26.8152 64.1925 26.745 64.2656 26.744L64.3541 26.9046C64.3414 26.9959 64.1797 27.7006 64.1048 28.0217Z" fill="white"/>
<path d="M60.072 22.2076C59.915 21.8874 59.6793 21.6288 59.3816 21.427C59.0766 21.227 58.715 21.0866 58.2921 21.0059C57.8766 20.928 57.3807 20.8857 56.8173 20.8848L54.1954 20.8867C53.9223 20.8915 53.6602 21.1145 53.5972 21.3885L51.8337 29.4695C51.7698 29.7435 51.9452 29.9703 52.2118 29.9703L53.4675 29.9684C53.7342 29.9703 54.0072 29.7454 54.0703 29.4685L54.4949 27.5064C54.557 27.2334 54.8264 27.0037 55.0976 27.0056H55.4565C56.9917 27.0056 58.1816 26.673 59.0382 26.0144C59.8848 25.3482 60.3131 24.4763 60.3131 23.3929C60.3086 22.9209 60.2309 22.5219 60.072 22.2076ZM57.3679 24.8503C56.9899 25.1367 56.462 25.2829 55.7862 25.2829H55.4739C55.2045 25.2858 55.0301 25.055 55.0903 24.7801L55.4702 23.068C55.5259 22.794 55.7981 22.5642 56.0693 22.5671L56.4757 22.5642C56.9579 22.5671 57.3195 22.6507 57.5661 22.8199C57.8118 22.9891 57.9278 23.2545 57.9305 23.6063C57.9332 24.1427 57.7442 24.5561 57.3679 24.8503Z" fill="white"/>
<path d="M70.8235 21.4541C70.881 21.1782 70.7166 20.9542 70.4472 20.9581H69.324C69.0938 20.9581 68.8865 21.1378 68.7851 21.3589L68.7231 21.4608L68.6664 21.7223L67.0966 29.2342L67.0454 29.4649L67.0473 29.4707C66.9952 29.7177 67.1395 29.9042 67.3623 29.9398L67.3815 29.9677H68.5477C68.776 29.9677 68.9906 29.785 69.0883 29.5601L69.1486 29.4639L70.8271 21.4551L70.8235 21.4541Z" fill="white"/>
<path d="M51.8685 23.0118C51.5717 23.0157 50.3653 23.0118 50.3653 23.0118C50.095 23.0118 49.748 23.2416 49.5763 23.5156C49.5763 23.5156 47.7809 26.7591 47.6064 27.085L47.3982 27.0821L46.8393 23.5377C46.7772 23.2589 46.5005 23.0205 46.1562 23.0205L45.0329 23.0224C44.7626 23.0224 44.5964 23.2493 44.6576 23.5261C44.6576 23.5261 45.5106 28.6356 45.6813 29.8383C45.7608 30.5016 45.6713 30.6198 45.6713 30.6198L44.5608 32.6559C44.3964 32.9328 44.485 33.1587 44.7544 33.1587L46.053 33.1568C46.3233 33.1568 46.6786 32.9328 46.8393 32.655L51.8347 23.7607C51.8347 23.7607 52.3151 23.0013 51.8685 23.0118Z" fill="white"/>
</svg>
