<svg width="79" height="47" viewBox="0 0 79 47" fill="none" xmlns="http://www.w3.org/2000/svg">
<path d="M20.2809 17.422C20.4689 17.422 20.6569 17.5752 20.6569 17.8048V20.1392C20.6569 20.3306 20.5065 20.522 20.2809 20.522H17.6487C17.3103 20.522 16.9719 20.4836 16.9719 20.4836V29.7833C16.9719 29.9747 16.8214 30.166 16.5958 30.166H13.738C13.55 30.166 13.362 30.0129 13.362 29.7833V20.4454C13.362 20.4454 13.0988 20.4836 12.8356 20.4836H10.0529C9.86494 20.4836 9.67689 20.3306 9.67689 20.101V17.7664C9.67689 17.5752 9.82733 17.3838 10.0529 17.3838H20.2809V17.422Z" fill="#FF5000"/>
<path d="M68.8275 17.422C69.0154 17.422 69.2035 17.5752 69.2035 17.8048V20.1392C69.2035 20.3306 69.0531 20.522 68.8275 20.522H66.1953C65.8568 20.522 65.5184 20.4836 65.5184 20.4836V29.7833C65.5184 29.9747 65.368 30.166 65.1423 30.166H62.2845C62.0965 30.166 61.9085 30.0129 61.9085 29.7833V20.4454C61.9085 20.4454 61.6453 20.4836 61.382 20.4836H58.5619C58.3738 20.4836 58.1858 20.3306 58.1858 20.101V17.7664C58.1858 17.5752 58.3362 17.3838 58.5619 17.3838H68.8275V17.422Z" fill="#FF5000"/>
<path d="M63.7129 9.46094C58.4485 9.46094 53.8609 12.5225 51.5671 17.0002C49.2734 12.5225 44.6858 9.46094 39.4214 9.46094C34.157 9.46094 29.5695 12.5225 27.2757 17.0002C24.9819 12.5225 20.3944 9.46094 15.1299 9.46094C7.57177 9.46094 1.4425 15.7373 1.4425 23.4296C1.4425 31.1602 7.57177 37.3982 15.1299 37.3982C20.3944 37.3982 24.9819 34.3366 27.2757 29.859C29.5695 34.3366 34.157 37.3982 39.4214 37.3982C44.6858 37.3982 49.2734 34.3366 51.5671 29.859C53.8609 34.3366 58.4485 37.3982 63.7129 37.3982C71.2711 37.3982 77.4002 31.1219 77.4002 23.4296C77.4002 15.7373 71.2335 9.46094 63.7129 9.46094ZM15.1299 34.2983C9.30154 34.2983 4.52593 29.438 4.52593 23.4679C4.52593 17.4976 9.26393 12.6373 15.1299 12.6373C20.9584 12.6373 25.734 17.4976 25.734 23.4679C25.734 29.438 20.996 34.2983 15.1299 34.2983ZM39.4214 34.2983C33.593 34.2983 28.8174 29.438 28.8174 23.4679C28.8174 17.4976 33.5554 12.6373 39.4214 12.6373C45.2499 12.6373 50.0254 17.4976 50.0254 23.4679C50.0254 29.438 45.2499 34.2983 39.4214 34.2983ZM63.7129 34.2983C57.8844 34.2983 53.1089 29.438 53.1089 23.4679C53.1089 17.4976 57.8468 12.6373 63.7129 12.6373C69.5413 12.6373 74.3168 17.4976 74.3168 23.4679C74.3168 29.438 69.5413 34.2983 63.7129 34.2983Z" fill="#FF5000"/>
<path d="M44.7233 17.1925C44.9489 17.1925 45.0993 17.3457 45.0993 17.5753V29.4008C45.0993 29.5921 44.9489 29.7835 44.7233 29.7835H42.3167C42.1663 29.7835 42.0159 29.7069 41.9031 29.5921C41.9031 29.5921 37.5788 23.5837 37.4659 23.4306C37.3155 23.2393 37.1651 22.8565 37.1651 22.8565V29.439C37.1651 29.6304 37.0147 29.8218 36.7891 29.8218H34.1193C33.9312 29.8218 33.7433 29.6686 33.7433 29.439V17.537C33.7433 17.3457 33.8937 17.1543 34.1193 17.1543H36.5259C36.6763 17.1543 36.8267 17.2309 36.9395 17.3457C36.9395 17.3457 41.1886 23.2775 41.3767 23.5072C41.527 23.6985 41.6775 24.0812 41.6775 24.0812V17.537C41.6775 17.3457 41.8278 17.1543 42.0535 17.1543C42.0159 17.1925 44.5353 17.1925 44.7233 17.1925Z" fill="#FF5000"/>
</svg>
