<svg width="124" height="27" viewBox="0 0 124 27" fill="none" xmlns="http://www.w3.org/2000/svg">
<g clip-path="url(#clip0_326_139)">
<path d="M0 26.2008C0.533417 25.5342 0.66677 24.6678 0.933478 23.9346C1.13351 23.4681 1.33354 23.2681 1.7336 23.3348C1.93363 23.3348 2.13366 23.3348 2.33369 23.3348C31.6049 23.3348 60.8095 23.3348 90.0805 23.3348C99.8821 23.3348 109.684 23.3348 119.485 23.3348C119.818 23.3348 120.085 23.3348 120.419 23.3348C120.219 24.4678 119.552 25.4009 119.418 26.5339C79.879 26.5339 40.3396 26.5339 0.800122 26.5339C0.533417 26.4674 0 26.8674 0 26.2008Z" fill="#005DAB"/>
<path d="M118.25 0.0666506C118.116 0.799807 117.783 1.39966 116.983 1.66627C116.583 1.79957 116.249 2.13282 115.982 2.46607C115.249 3.39919 115.382 4.19899 116.382 4.79886C116.983 5.19874 117.649 5.46536 118.316 5.79861C120.783 7.06498 121.383 8.79789 120.25 11.3306C118.983 14.1299 115.582 16.2628 112.649 16.1961C112.715 15.4629 112.982 14.9297 113.782 14.7298C114.182 14.6631 114.516 14.3965 114.782 14.1966C116.116 13.1302 115.982 11.9305 114.516 11.1306C113.649 10.6641 112.782 10.3308 111.982 9.73098C110.582 8.73123 110.115 7.46486 110.648 5.79861C111.582 2.73267 113.715 0.93311 116.716 0.199952C116.849 0.133301 117.049 0.266603 117.116 0C117.583 0.0666506 117.916 0.0666506 118.25 0.0666506Z" fill="#005DAB"/>
<path d="M28.8209 0C28.8876 0.133301 28.9545 0.133301 29.0877 0.199952C31.6215 0.799807 32.8215 2.26612 32.7549 4.79886C32.6216 8.46464 29.7544 14.4632 24.1536 15.9961C23.6202 16.1295 23.1535 16.3294 22.5534 16.2628C22.6867 15.5962 22.8867 15.063 23.5535 14.7964C24.0869 14.5965 24.3537 14.1299 24.5537 13.5967C25.8873 9.9976 27.2209 6.46511 28.5544 2.86599C28.7543 2.33277 28.8209 1.79957 28.2876 1.46631C28.0208 1.33301 28.1543 1.13306 28.2209 0.93311C28.1543 0.599856 28.3542 0.333253 28.2876 0C28.4877 0 28.6877 0 28.8209 0Z" fill="#005DAB"/>
<path d="M123.757 0.937758C123.157 2.00417 122.89 3.20389 122.424 4.33694C122.29 4.60355 122.224 4.9368 122.024 5.13673C121.824 5.47001 121.49 5.60331 121.09 5.47001C120.623 5.33669 120.757 4.9368 120.824 4.60355C121.09 3.07057 120.623 2.13747 119.29 1.40431C118.957 1.20436 118.957 1.07106 119.023 0.737808C119.09 0.537855 119.29 0.271252 119.157 0.00464984C119.49 0.00464984 119.823 0.00464984 120.157 0.00464984C121.157 0.537855 122.224 1.20436 123.224 0.00464984C124.091 -0.0620008 123.691 0.604505 123.757 0.937758Z" fill="#005DAB"/>
<path d="M1.5554 23.2112C1.88879 22.2781 2.22218 21.4116 2.55556 20.5452C2.62224 20.3452 2.75559 20.2119 3.0223 20.2119C3.289 20.2119 3.55571 20.2119 3.75575 20.2119C42.7619 20.2119 81.8345 20.2119 120.841 20.2119C121.174 20.2119 121.507 20.2119 121.974 20.2119C121.641 21.145 121.307 22.0115 120.974 22.9446C120.907 23.1445 120.774 23.2778 120.507 23.2778C120.307 23.2778 120.04 23.2778 119.84 23.2778C80.7676 23.2778 41.6949 23.2778 2.62224 23.2778C2.22218 23.2112 1.95547 23.2112 1.5554 23.2112Z" fill="#EF2E24"/>
<path d="M100.262 0.0666506C100.862 0.0666506 101.529 0.0666506 102.129 0.0666506C103.329 0.0666506 103.329 0.0666507 103.596 1.26636C104.196 4.13233 104.796 6.93165 105.396 9.73098C105.53 10.2642 105.53 10.7308 105.33 11.2639C104.863 12.4637 104.396 13.73 103.929 14.9964C103.796 15.3963 103.596 15.6629 103.063 15.5962C102.396 15.5296 101.729 15.5296 101.129 15.5962C100.595 15.6629 100.462 15.3963 100.329 14.9297C99.3954 10.7308 98.5286 6.5984 97.5952 2.39942C97.5283 1.99952 97.4617 1.53296 96.9949 1.33301C96.7284 1.19971 96.3283 1.13306 96.4616 0.733157C96.5282 0.333253 96.8617 0.0666506 97.2617 0.0666506C97.7951 -7.62038e-09 98.3285 0 98.8618 0C99.3285 0.0666506 99.7955 0.0666506 100.262 0.0666506Z" fill="#005DAB"/>
<path d="M81.6587 12.3079C81.8589 11.1082 82.6588 11.0415 83.5256 11.1082C84.8591 11.1748 84.8591 11.1082 85.0593 9.77517C85.3927 7.24246 85.7259 4.77638 86.126 2.24366C86.2596 1.2439 86.7929 0.777344 87.793 0.777344C88.8597 0.777344 89.8601 0.777344 90.9268 0.777344C91.3935 0.777344 91.5937 0.843994 91.527 1.3772C90.9934 5.44288 90.46 9.50858 89.9267 13.5743C89.8601 14.1741 89.5932 14.8406 90.3268 15.3072C90.6602 15.5071 90.4601 15.8404 90.1935 16.107C89.9267 16.3069 89.6599 16.3736 89.3267 16.3736C87.4595 16.3736 85.5927 16.3736 83.7258 16.3736C83.3923 16.3736 83.0589 16.4402 82.9256 16.0403C82.859 15.6404 83.1255 15.4405 83.459 15.2405C84.2591 14.774 84.7925 13.441 84.5926 12.5745C84.5259 12.2412 84.2591 12.3079 84.0592 12.3079C83.259 12.3079 82.4589 12.3079 81.6587 12.3079Z" fill="#005DAB"/>
<path d="M43.0517 0.777344C42.3185 2.77685 41.5849 4.70972 40.9183 6.57596C39.9846 9.10867 39.0511 11.5747 38.1177 14.1075C37.9178 14.574 37.8511 14.9073 38.4511 15.1739C38.9845 15.3738 38.7179 15.7737 38.4511 16.0403C38.1843 16.3069 37.7842 16.3736 37.4511 16.3736C35.5839 16.3736 33.7837 16.3736 31.9168 16.3736C31.5833 16.3736 31.1832 16.5069 31.1166 15.9737C31.05 15.5071 31.3834 15.2405 31.7169 15.1739C32.4501 15.0406 32.7169 14.574 32.9169 13.9075C34.2504 10.3084 35.5839 6.70925 36.9174 3.1101C37.1176 2.64356 37.2509 2.24366 36.5843 1.97706C36.1175 1.7771 36.3174 1.44385 36.5176 1.17725C36.7842 0.910647 37.051 0.843994 37.4511 0.843994C39.3179 0.777344 41.1182 0.777344 43.0517 0.777344Z" fill="#005DAB"/>
<path d="M63.4299 16.3736C62.4965 16.3736 61.4961 16.3736 60.5627 16.3736C60.2961 16.3736 59.9627 16.3736 59.896 16.0403C59.8294 15.7071 60.0293 15.3738 60.2961 15.3072C61.4295 15.1072 61.6296 14.1741 61.9631 13.3077C63.2297 9.90849 64.4966 6.57596 65.6969 3.17676C65.897 2.71022 66.097 2.24366 65.3634 1.97706C64.9633 1.84375 65.0969 1.44385 65.2968 1.17725C65.5636 0.843996 66.0303 0.777344 66.4304 0.777344C67.9638 0.777344 69.4975 0.843996 71.031 0.777344C71.6979 0.777344 71.7645 0.910647 71.5643 1.5105C70.0309 5.64284 68.4972 9.70853 66.9638 13.8409C66.7638 14.3741 66.4304 14.9739 67.2972 15.2405C67.4971 15.3072 67.4971 15.5738 67.4305 15.7737C67.2306 16.107 66.9638 16.3736 66.5637 16.3736C65.8301 16.3736 65.0969 16.3736 64.3633 16.3736C64.0965 16.3736 63.7633 16.3736 63.4299 16.3736Z" fill="#005DAB"/>
<path d="M8.27955 16.3736C7.34608 16.3736 6.34592 16.3736 5.41245 16.3736C5.14574 16.3736 4.74568 16.4402 4.67899 16.0403C4.6123 15.7071 4.81235 15.3738 5.14574 15.3072C6.21256 15.1072 6.41261 14.3074 6.74598 13.441C8.21288 9.50858 9.67976 5.50954 11.1467 1.57715C11.3467 0.977297 11.6801 0.777344 12.2802 0.777344C13.4137 0.843996 14.5472 0.777344 15.6807 0.777344C16.6809 0.777344 16.6809 0.777344 16.3475 1.6438C14.8139 5.64284 13.347 9.70853 11.8134 13.7076C11.6134 14.2408 11.2133 14.8406 12.1468 15.2405C12.4802 15.3738 12.2802 15.7071 12.1468 15.9737C11.8801 16.3069 11.48 16.3736 11.08 16.3736C10.0798 16.3736 9.21302 16.3736 8.27955 16.3736Z" fill="#005DAB"/>
<path d="M60.1613 0.789592C59.5613 2.38921 59.0277 3.85551 58.4943 5.3885C57.4276 8.25446 56.3606 11.1871 55.2939 14.0531C55.0937 14.5196 54.9604 14.9195 55.6273 15.1861C56.0274 15.3194 55.8939 15.6527 55.694 15.9859C55.4272 16.3192 55.0271 16.3858 54.627 16.3858C52.7601 16.3858 50.8932 16.3858 49.0263 16.3858C48.6929 16.3858 48.2928 16.4525 48.2262 15.9859C48.1595 15.586 48.4927 15.3194 48.8262 15.2528C49.693 15.1195 49.9598 14.453 50.2263 13.7198C51.6934 9.65412 53.2268 5.58843 54.6939 1.52275C54.8938 0.922895 55.1606 0.722942 55.7606 0.789592C57.2274 0.856244 58.6276 0.789592 60.1613 0.789592Z" fill="#005DAB"/>
<path d="M73.0732 8.64478C73.2067 8.97803 73.5399 8.91139 73.7401 8.97803C75.3401 9.44458 75.7402 10.3111 75.2069 11.844C74.9403 12.5772 74.6735 13.3103 74.4067 14.1101C74.8734 14.1768 75.007 13.8435 75.2735 13.7102C75.5403 13.5769 75.7402 13.5103 75.9404 13.7102C76.1403 13.9102 76.0737 14.1101 75.9404 14.3101C75.1402 15.9763 71.8063 17.1761 70.1396 16.3096C69.406 15.9097 69.0726 15.2432 69.2728 14.3101C69.4727 13.3103 69.9394 12.3772 70.2728 11.3774C70.4728 10.7109 71.0064 9.91115 69.8728 9.44458C69.606 9.31128 70.0727 8.24487 70.4728 8.17823C71.3396 7.97828 71.8063 7.37841 72.0731 6.57861C72.4732 5.57886 72.8066 4.51245 73.2067 3.51267C73.34 3.04613 73.4733 2.57958 73.0065 2.31297C72.4732 1.97972 72.6731 1.64647 72.8066 1.24656C72.9399 0.71336 73.34 0.78001 73.7401 0.78001C74.4733 0.78001 75.2069 0.78001 75.9404 0.979963C77.7407 1.37987 78.5408 2.64622 78.0741 4.37913C77.5405 6.24536 76.2739 7.44507 74.5402 8.17823C74.0066 8.37819 73.5399 8.51148 73.0732 8.64478Z" fill="#005DAB"/>
<path d="M17.1095 11.5461C17.1761 6.48063 21.3768 1.21524 26.2441 0.148831C26.5775 0.0821806 27.1109 -0.184422 27.2444 0.215482C27.3777 0.615385 27.1778 1.14859 26.5775 1.34854C25.9109 1.61514 25.5107 2.14835 25.244 2.81485C23.9772 6.34733 22.6436 9.81316 21.3101 13.3457C21.1101 13.8789 20.91 14.4121 21.4434 14.812C21.9769 15.2119 21.4434 15.5451 21.3768 15.8784C21.3101 16.2783 20.91 16.145 20.71 16.0783C18.5097 15.7451 17.1095 14.0788 17.1095 11.5461Z" fill="#005DAB"/>
<path d="M40.4406 10.3148C40.5738 9.58166 40.774 9.11511 41.5073 8.91515C42.0406 8.78186 42.4407 8.24865 42.6409 7.71545C43.1742 6.31578 43.7076 4.84946 44.241 3.4498C44.4411 2.98325 44.5078 2.3834 43.9078 2.1168C43.5077 1.91684 43.5743 1.71689 43.7076 1.45029C43.8411 1.18369 43.7742 0.717134 44.3079 0.783784C45.4412 0.783784 46.5082 0.850434 47.5083 1.31699C48.7085 1.91684 49.1753 3.18321 48.8418 4.71616C47.975 8.0487 45.4412 10.1149 41.8407 10.3148C41.374 10.3148 40.9073 10.3148 40.4406 10.3148Z" fill="#005DAB"/>
<path d="M84.4385 3.88672C84.5718 4.88647 84.5052 5.75293 83.9718 6.61941C82.5717 8.68557 81.1712 10.8184 79.8377 12.9512C79.1044 14.0843 79.1044 14.0843 80.0379 15.084C80.3713 15.4173 80.1711 16.0171 79.5711 16.0838C78.3043 16.2837 77.0374 16.2171 75.7705 16.0838C75.5706 16.0838 75.437 15.9505 75.437 15.6839C75.437 15.4173 75.5706 15.1507 75.8371 15.084C77.7709 14.5508 78.5708 12.8846 79.5711 11.3516C81.1712 8.95217 82.8382 6.41945 84.4385 3.88672Z" fill="#005DAB"/>
<path d="M96.7176 4.66406C97.1843 5.66381 97.3176 6.66359 96.8509 7.72998C96.184 9.26296 95.6506 10.8626 95.1173 12.4622C94.7838 13.3953 94.5173 14.2617 95.5174 15.0615C95.9841 15.3948 95.584 15.8614 95.1173 15.9947C93.8504 16.2613 92.5835 16.128 91.3166 16.0613C90.9165 16.0613 90.8499 15.3282 91.3166 15.1949C93.3837 14.395 93.8504 12.4622 94.5173 10.7293C95.2506 8.6631 95.9841 6.66359 96.7176 4.66406Z" fill="#005DAB"/>
<path d="M110.483 10.9756C110.349 11.5088 110.349 12.1087 110.483 12.7085C110.683 13.575 111.016 14.3081 111.883 14.708C112.283 14.908 112.283 15.1079 112.15 15.4412C112.016 15.7744 112.016 16.1744 111.483 16.1077C110.95 16.0411 110.483 15.9077 110.016 15.6411C109.416 15.2412 108.883 15.2412 108.349 15.7744C108.082 15.9744 107.816 16.1744 107.482 15.9077C107.216 15.7078 107.349 15.3745 107.416 15.1079C107.949 13.7083 108.416 12.3753 108.949 10.9756C109.016 10.709 109.149 10.4424 109.416 10.3091C109.616 10.1092 109.883 10.0425 110.216 10.1758C110.483 10.3091 110.483 10.5757 110.483 10.9756Z" fill="#005DAB"/>
<path d="M106.119 8.89073C105.719 7.691 105.586 6.62459 106.119 5.5582C106.519 4.75838 106.719 3.95858 106.986 3.09213C107.186 2.42561 107.186 1.75911 106.453 1.29255C105.986 0.959298 106.119 0.292794 106.786 0.159492C108.053 -0.10711 109.32 0.0261908 110.587 0.0928412C110.987 0.0928412 111.053 0.426095 110.853 0.759348C110.787 0.892648 110.653 1.02595 110.587 1.02595C108.72 1.69245 108.186 3.29208 107.653 4.89167C107.12 6.29134 106.653 7.55771 106.119 8.89073Z" fill="#005DAB"/>
<path d="M8.8374 0.815759C9.03742 0.815759 9.17077 0.815759 9.37081 0.815759C9.70421 0.882409 10.1709 0.615806 10.2376 0.949059C10.3043 1.28231 10.1043 1.81552 9.77087 2.08212C8.43734 2.94858 7.70389 4.28158 6.90377 5.54795C6.77042 5.81457 6.57037 6.0145 6.37033 6.14782C6.17032 6.28111 5.83692 6.34777 5.6369 6.14782C5.3702 6.0145 5.43686 5.7479 5.50355 5.48129C6.03696 4.08163 6.57037 2.61533 7.10379 1.21566C7.23714 0.949059 7.37049 0.749109 7.70389 0.815759C8.10395 0.815759 8.43734 0.815759 8.8374 0.815759Z" fill="#005DAB"/>
<path d="M20.605 0.843996C19.9382 2.51026 19.4048 4.10988 18.738 5.7095C18.538 6.17605 18.2046 6.376 17.7378 6.24271C17.1378 6.10939 17.4045 5.64284 17.4711 5.24293C17.6045 4.17652 17.8712 3.17676 17.2044 2.11036C16.8711 1.57715 17.4711 0.777344 18.1379 0.777344C18.938 0.843996 19.6715 0.843996 20.605 0.843996Z" fill="#005DAB"/>
<path d="M53.9268 0.777344C53.7935 1.5105 53.5267 2.04371 52.9267 2.44361C51.9933 3.04347 51.4597 4.04322 50.8597 4.97634C50.6598 5.30959 50.5262 5.64284 50.2597 5.90943C49.9929 6.24271 49.6594 6.376 49.2593 6.17605C48.7926 5.97609 49.0594 5.57618 49.1927 5.30959C49.6594 3.97659 50.193 2.64356 50.6598 1.31055C50.793 0.910647 50.9929 0.777344 51.393 0.843996C52.2598 0.843996 53.06 0.777344 53.9268 0.777344Z" fill="#005DAB"/>
<path d="M64.1155 0.777344C63.5152 2.44361 62.9152 3.97659 62.3819 5.50954C62.2483 5.77613 62.1151 5.97609 61.8483 6.10939C61.2483 6.376 60.8482 6.10939 60.9815 5.44288C61.1816 4.24318 61.4484 3.1101 60.7815 1.9104C60.3815 1.5105 61.0484 0.777344 61.715 0.777344C62.4485 0.777344 63.2487 0.777344 64.1155 0.777344Z" fill="#005DAB"/>
</g>
<defs>
<clipPath id="clip0_326_139">
<rect width="123.793" height="26.5926" fill="white"/>
</clipPath>
</defs>
</svg>
