<svg width="77" height="45" viewBox="0 0 77 45" fill="none" xmlns="http://www.w3.org/2000/svg">
<g clip-path="url(#clip0_326_162)">
<mask id="mask0_326_162" style="mask-type:luminance" maskUnits="userSpaceOnUse" x="0" y="0" width="77" height="45">
<path d="M76.0272 0.0371094H0.316872V44.9326H76.0272V0.0371094Z" fill="white"/>
</mask>
<g mask="url(#mask0_326_162)">
<path fill-rule="evenodd" clip-rule="evenodd" d="M20.2263 13.401L20.3897 31.8938L24.5582 37.0262L37.0639 43.6249L52.43 36.13L55.6176 28.5536L55.2907 4.03192L43.6844 3.70605L31.5878 5.66123L20.5537 12.0156L20.2263 13.401Z" fill="#301506"/>
<path d="M38.1316 0.0371094C30.8473 0.0371094 24.4934 1.44313 19.2452 4.21511V26.3763C19.2452 31.0394 21.003 34.9388 24.3278 37.6553C27.4149 40.1793 36.962 44.3387 38.1319 44.8438C39.2415 44.3626 48.9018 40.1389 51.9398 37.6553C55.2627 34.9403 57.021 31.0397 57.021 26.3763V4.21511C51.7721 1.44276 45.4188 0.0371094 38.1316 0.0371094ZM48.9176 4.32849C51.0898 4.3568 53.2228 4.49055 55.2846 4.68154V26.3761C55.2846 30.5452 53.7668 33.9128 50.8383 36.3171C48.2222 38.4645 40.3333 41.9874 38.1319 42.9546C35.9012 41.9743 27.9925 38.4069 25.4234 36.3179C22.5122 33.9549 20.9798 30.5073 20.9798 26.3771V13.7004C29.3456 6.05353 39.5042 4.20627 48.9168 4.32898L48.9176 4.32849ZM38.624 14.4304C36.8318 14.4304 35.3857 14.8297 34.195 15.5956V36.9405H37.4823V30.0447C37.8103 30.1411 38.2865 30.2312 38.961 30.2312C42.6073 30.2312 44.7032 26.9549 44.7032 22.1713C44.7032 17.3971 42.5451 14.4304 38.624 14.4304ZM49.856 14.4304C47.6942 14.4928 45.4334 16.0537 45.4472 18.6998C45.4528 20.4422 45.9373 21.7452 48.6465 23.3296C50.0923 24.1754 50.6748 24.7329 50.6998 25.7607C50.7274 26.9033 49.9354 27.5923 48.73 27.5876C47.6814 27.5794 46.4278 26.9993 45.5883 26.2544V29.2695C46.6176 29.8813 47.902 30.2856 49.1994 30.2856C52.4468 30.2856 53.8969 27.9992 53.9595 25.9041C54.0213 23.9946 53.4919 22.5497 50.7458 20.9415C49.5202 20.225 48.5523 19.7542 48.5846 18.562C48.6168 17.3982 49.5862 16.9894 50.5169 16.9977C51.665 17.0078 52.7757 17.6416 53.4613 18.3424V15.4951C52.8835 15.0515 51.6603 14.3752 49.856 14.4304ZM22.6584 14.7619V25.0577C22.6584 28.5287 24.3057 30.2859 27.5568 30.2859C29.5684 30.2859 31.2534 29.8218 32.5084 28.9712V14.7619H29.2285V27.1071C28.8709 27.3514 28.3406 27.5075 27.6734 27.5075C26.1677 27.5075 25.9427 26.1312 25.9427 25.2027V14.7621L22.6584 14.7619ZM38.6462 17.0681C40.5527 17.0681 41.343 18.5854 41.343 22.2547C41.343 25.835 40.4391 27.5647 38.5482 27.5647C38.1032 27.5647 37.7163 27.4548 37.4813 27.3667V17.3052C37.7476 17.173 38.2001 17.0681 38.6462 17.0681Z" fill="#FAB80A"/>
</g>
</g>
<defs>
<clipPath id="clip0_326_162">
<rect width="76.1097" height="44.9322" fill="white" transform="translate(0.196533)"/>
</clipPath>
</defs>
</svg>
