<svg width="99" height="52" viewBox="0 0 99 52" fill="none" xmlns="http://www.w3.org/2000/svg">
<path d="M0.698242 7.89551C0.698242 4.02951 3.83225 0.895508 7.69824 0.895508H91.3019C95.1679 0.895508 98.3019 4.02952 98.3019 7.89551V44.0405C98.3019 47.9065 95.1679 51.0405 91.3019 51.0405H7.69824C3.83225 51.0405 0.698242 47.9065 0.698242 44.0405V7.89551Z" fill="#172654"/>
<path d="M44.4028 19.9005L39.8329 30.583H36.8454L34.5946 22.0503C34.4588 21.5296 34.336 21.3293 33.9262 21.1156C33.2447 20.7551 32.1258 20.4213 31.1436 20.2076L31.2118 19.9005H36.0135C36.6275 19.9005 37.1731 20.3011 37.3097 20.9821L38.4961 27.1646L41.4429 19.9005H44.4028ZM48.4409 19.9005L46.108 30.583H43.2847L45.6168 19.9005H48.4409ZM56.0943 27.0845C56.1073 24.2669 52.1106 24.1067 52.1383 22.8516C52.1513 22.4643 52.5197 22.0637 53.3385 21.9569C53.7475 21.9035 54.8526 21.8634 56.1211 22.4376L56.6123 20.1676C55.93 19.9272 55.0575 19.7002 53.9793 19.7002C51.1829 19.7002 49.2321 21.1557 49.2053 23.2254C49.1914 24.761 50.6104 25.6156 51.674 26.1364C52.7791 26.6572 53.1475 26.991 53.1336 27.4584C53.1198 28.1794 52.2603 28.4865 51.4423 28.5C50.0233 28.5266 49.2053 28.126 48.5499 27.8189L48.0319 30.1557C48.6865 30.4495 49.9144 30.7032 51.169 30.7165C54.1436 30.7433 56.0805 29.3011 56.0943 27.0845ZM63.4606 30.5697H66.066L63.7875 19.8871H61.3871C60.8415 19.8871 60.391 20.1943 60.1861 20.675L55.9577 30.5697H58.9176L59.5046 28.9806H63.1191L63.4606 30.5697ZM60.3089 26.7907L61.7961 22.7848L62.6556 26.7907H60.3089ZM52.0423 33.5073H50.8966V34.5489H52.179V34.8694H50.5145V31.9717H52.1245V32.2922H50.9105V33.2135H52.0562V33.5073H52.0423ZM52.7791 31.8115H53.1613V34.8694H52.7791V31.8115ZM54.1435 33.8946C54.1565 34.402 54.4843 34.6157 54.8664 34.6157C55.1388 34.6157 55.3161 34.5622 55.4527 34.5088L55.521 34.7759C55.3844 34.8293 55.1527 34.9095 54.8119 34.9095C54.1565 34.9095 53.7614 34.4821 53.7614 33.8546C53.7614 33.2269 54.1435 32.7329 54.7575 32.7329C55.4527 32.7329 55.63 33.3204 55.63 33.7076C55.63 33.7878 55.63 33.8411 55.6162 33.8812H54.1435V33.8946ZM55.2754 33.6275C55.2754 33.3872 55.1803 33.0133 54.7437 33.0133C54.3477 33.0133 54.1842 33.3605 54.1566 33.6275H55.2754ZM57.745 34.8026C57.649 34.856 57.4173 34.9228 57.131 34.9228C56.4895 34.9228 56.0667 34.4955 56.0667 33.8546C56.0667 33.2135 56.5171 32.7462 57.2124 32.7462C57.4441 32.7462 57.649 32.7997 57.745 32.853L57.6628 33.1468C57.5669 33.0934 57.4311 33.0534 57.2124 33.0534C56.7212 33.0534 56.4627 33.4138 56.4627 33.8411C56.4627 34.3219 56.7757 34.6157 57.1985 34.6157C57.4173 34.6157 57.5669 34.5622 57.6767 34.5222L57.745 34.8026ZM58.8363 32.2922V32.7862H59.3949V33.08H58.8363V34.2017C58.8363 34.4554 58.9037 34.6023 59.1225 34.6023C59.2314 34.6023 59.2859 34.5889 59.3404 34.5756L59.3542 34.8694C59.2859 34.896 59.1631 34.9228 59.0135 34.9228C58.8362 34.9228 58.6858 34.856 58.5907 34.7625C58.4809 34.6423 58.4402 34.4554 58.4402 34.215V33.08H58.1125V32.7862H58.4402V32.399L58.8363 32.2922ZM59.9275 33.4406C59.9275 33.2002 59.9275 32.9866 59.9136 32.7862H60.2544L60.2682 33.2002H60.282C60.3771 32.9198 60.6089 32.7462 60.8683 32.7462C60.9098 32.7462 60.9366 32.7462 60.9773 32.7596V33.1201C60.9366 33.1068 60.8959 33.1068 60.8414 33.1068C60.5682 33.1068 60.3771 33.3071 60.3227 33.5874C60.3088 33.6409 60.3089 33.7076 60.3089 33.761V34.8694H59.9275V33.4406ZM63.3517 33.8145C63.3517 34.5889 62.8052 34.9228 62.2872 34.9228C61.714 34.9228 61.2643 34.5088 61.2643 33.8546C61.2643 33.1601 61.7278 32.7596 62.3149 32.7596C62.9418 32.7462 63.3517 33.1735 63.3517 33.8145ZM61.6733 33.8278C61.6733 34.2818 61.9327 34.629 62.3149 34.629C62.6824 34.629 62.9557 34.2952 62.9557 33.8145C62.9557 33.4673 62.7784 33.0133 62.3149 33.0133C61.8644 33.0266 61.6733 33.4406 61.6733 33.8278ZM63.938 33.3471C63.938 33.1335 63.9379 32.9598 63.9241 32.7862H64.2656L64.2925 33.1335H64.3063C64.4153 32.9465 64.6609 32.7462 65.0154 32.7462C65.3155 32.7462 65.7659 32.9198 65.7659 33.6275V34.8694H65.3837V33.6676C65.3837 33.3337 65.261 33.0534 64.8926 33.0534C64.647 33.0534 64.4429 33.2269 64.3746 33.4406C64.3608 33.494 64.347 33.5474 64.347 33.6142V34.8694H63.9648V33.3471H63.938Z" fill="white"/>
</svg>
