<svg width="24" height="24" viewBox="0 0 24 24" fill="none" xmlns="http://www.w3.org/2000/svg">
<path d="M1.70677 9.86211C1.92423 9.86211 2.10052 10.0384 2.10052 10.2559C2.10052 10.4733 1.92423 10.6496 1.70677 10.6496H0.46875C0.251286 10.6496 0.075 10.4733 0.075 10.2559C0.075 10.0384 0.251286 9.86211 0.46875 9.86211H1.70677Z" fill="#0E1D4C" stroke="white" stroke-width="0.15"/>
<path d="M1.12256 13.8509H1.92093C2.1384 13.8509 2.31468 14.0272 2.31468 14.2446C2.31468 14.4621 2.1384 14.6384 1.92093 14.6384H1.12256C0.905094 14.6384 0.728809 14.4621 0.728809 14.2446C0.728809 14.0272 0.905094 13.8509 1.12256 13.8509Z" fill="#0E1D4C" stroke="white" stroke-width="0.15"/>
<mask id="path-3-inside-1_955_1604" fill="white">
<path d="M20.0688 5.01431H19.1925V3.43237H20.4043C20.9148 3.43237 21.3301 3.01767 21.3301 2.508V0.924328C21.3301 0.414656 20.9148 0 20.4043 0H16.6816C16.4227 0 16.2129 0.209906 16.2129 0.46875V5.01431H10.2384C8.16962 5.01431 6.47021 6.62156 6.31932 8.65317H5.92698C5.66809 8.65317 5.45823 8.86308 5.45823 9.12192V9.78703H3.58257C3.32368 9.78703 3.11382 9.99694 3.11382 10.2558C3.11382 10.5146 3.32368 10.7245 3.58257 10.7245H5.45823V11.7815H2.59473C2.33584 11.7815 2.12598 11.9914 2.12598 12.2502C2.12598 12.5091 2.33584 12.719 2.59473 12.719H5.45823V13.7759H3.83855C3.57966 13.7759 3.3698 13.9858 3.3698 14.2447C3.3698 14.5035 3.57966 14.7134 3.83855 14.7134H5.45823V15.3785C5.45823 15.6374 5.66809 15.8473 5.92698 15.8473H9.11734V16.4329C9.11734 17.2735 9.80124 17.9574 10.6419 17.9574H12.6709V23.5312C12.6709 23.7901 12.8808 24 13.1396 24H16.2029C16.4618 24 16.6716 23.7901 16.6716 23.5312V17.9574H18.6991C19.5398 17.9574 20.2237 17.2735 20.2237 16.4329V15.8473H23.5312C23.7901 15.8473 24 15.6374 24 15.3786V13.8093C24 13.5505 23.7901 13.3406 23.5312 13.3406C23.2724 13.3406 23.0625 13.5505 23.0625 13.8093V14.9098H14.171V8.94689C14.171 7.74863 13.6322 6.67369 12.7842 5.95177H16.2129V7.52306C15.768 7.93584 15.5172 8.50631 15.5172 9.12188C15.5172 10.327 16.4976 11.3074 17.7027 11.3074C18.9078 11.3074 19.8882 10.327 19.8882 9.12188C19.8882 8.50627 19.6374 7.9358 19.1925 7.52302V5.95177H20.0688C21.7195 5.95177 23.0625 7.29534 23.0625 8.94689V9.59916C23.0625 9.858 23.2724 10.0679 23.5312 10.0679C23.7901 10.0679 24 9.858 24 9.59916V8.94689C24 6.77845 22.2365 5.01431 20.0688 5.01431ZM6.39577 14.9098V10.0934L10.0219 12.9758C10.1073 13.0437 10.2105 13.0777 10.3136 13.0777C10.4167 13.0777 10.5198 13.0437 10.6052 12.9759L13.2335 10.8883V14.9098L6.39577 14.9098ZM15.7341 23.0625H13.6084V17.9574H15.7341V23.0625ZM19.2862 15.8473V16.4329C19.2862 16.7565 19.0229 17.0199 18.6991 17.0199H16.2029H13.1397H10.6419C10.3183 17.0199 10.0549 16.7565 10.0549 16.4329V15.8473H13.7023H19.2862ZM13.2335 9.69108L10.3137 12.0102L7.26995 9.59067H13.2334V9.69108H13.2335ZM13.2189 8.65317H7.25931C7.40734 7.13902 8.68679 5.95181 10.2384 5.95181C11.7908 5.95181 13.0708 7.13902 13.2189 8.65317ZM18.7237 2.49487C18.4648 2.49487 18.255 2.70478 18.255 2.96362V7.74211C18.255 7.89037 18.3251 8.02992 18.4441 8.11833C18.766 8.35758 18.9506 8.7233 18.9506 9.12188C18.9506 9.81005 18.3908 10.3699 17.7026 10.3699C17.0145 10.3699 16.4546 9.81005 16.4546 9.12188C16.4546 8.72334 16.6393 8.35753 16.9612 8.11833C17.0802 8.02987 17.1503 7.89037 17.1503 7.74211V0.9375H20.3926V2.49487H18.7237Z"/>
</mask>
<path d="M20.0688 5.01431H19.1925V3.43237H20.4043C20.9148 3.43237 21.3301 3.01767 21.3301 2.508V0.924328C21.3301 0.414656 20.9148 0 20.4043 0H16.6816C16.4227 0 16.2129 0.209906 16.2129 0.46875V5.01431H10.2384C8.16962 5.01431 6.47021 6.62156 6.31932 8.65317H5.92698C5.66809 8.65317 5.45823 8.86308 5.45823 9.12192V9.78703H3.58257C3.32368 9.78703 3.11382 9.99694 3.11382 10.2558C3.11382 10.5146 3.32368 10.7245 3.58257 10.7245H5.45823V11.7815H2.59473C2.33584 11.7815 2.12598 11.9914 2.12598 12.2502C2.12598 12.5091 2.33584 12.719 2.59473 12.719H5.45823V13.7759H3.83855C3.57966 13.7759 3.3698 13.9858 3.3698 14.2447C3.3698 14.5035 3.57966 14.7134 3.83855 14.7134H5.45823V15.3785C5.45823 15.6374 5.66809 15.8473 5.92698 15.8473H9.11734V16.4329C9.11734 17.2735 9.80124 17.9574 10.6419 17.9574H12.6709V23.5312C12.6709 23.7901 12.8808 24 13.1396 24H16.2029C16.4618 24 16.6716 23.7901 16.6716 23.5312V17.9574H18.6991C19.5398 17.9574 20.2237 17.2735 20.2237 16.4329V15.8473H23.5312C23.7901 15.8473 24 15.6374 24 15.3786V13.8093C24 13.5505 23.7901 13.3406 23.5312 13.3406C23.2724 13.3406 23.0625 13.5505 23.0625 13.8093V14.9098H14.171V8.94689C14.171 7.74863 13.6322 6.67369 12.7842 5.95177H16.2129V7.52306C15.768 7.93584 15.5172 8.50631 15.5172 9.12188C15.5172 10.327 16.4976 11.3074 17.7027 11.3074C18.9078 11.3074 19.8882 10.327 19.8882 9.12188C19.8882 8.50627 19.6374 7.9358 19.1925 7.52302V5.95177H20.0688C21.7195 5.95177 23.0625 7.29534 23.0625 8.94689V9.59916C23.0625 9.858 23.2724 10.0679 23.5312 10.0679C23.7901 10.0679 24 9.858 24 9.59916V8.94689C24 6.77845 22.2365 5.01431 20.0688 5.01431ZM6.39577 14.9098V10.0934L10.0219 12.9758C10.1073 13.0437 10.2105 13.0777 10.3136 13.0777C10.4167 13.0777 10.5198 13.0437 10.6052 12.9759L13.2335 10.8883V14.9098L6.39577 14.9098ZM15.7341 23.0625H13.6084V17.9574H15.7341V23.0625ZM19.2862 15.8473V16.4329C19.2862 16.7565 19.0229 17.0199 18.6991 17.0199H16.2029H13.1397H10.6419C10.3183 17.0199 10.0549 16.7565 10.0549 16.4329V15.8473H13.7023H19.2862ZM13.2335 9.69108L10.3137 12.0102L7.26995 9.59067H13.2334V9.69108H13.2335ZM13.2189 8.65317H7.25931C7.40734 7.13902 8.68679 5.95181 10.2384 5.95181C11.7908 5.95181 13.0708 7.13902 13.2189 8.65317ZM18.7237 2.49487C18.4648 2.49487 18.255 2.70478 18.255 2.96362V7.74211C18.255 7.89037 18.3251 8.02992 18.4441 8.11833C18.766 8.35758 18.9506 8.7233 18.9506 9.12188C18.9506 9.81005 18.3908 10.3699 17.7026 10.3699C17.0145 10.3699 16.4546 9.81005 16.4546 9.12188C16.4546 8.72334 16.6393 8.35753 16.9612 8.11833C17.0802 8.02987 17.1503 7.89037 17.1503 7.74211V0.9375H20.3926V2.49487H18.7237Z" fill="#0E1D4C" stroke="white" stroke-width="0.3" mask="url(#path-3-inside-1_955_1604)"/>
<path d="M23.1375 11.7036C23.1375 11.4862 23.3138 11.3099 23.5312 11.3099C23.7487 11.3099 23.925 11.4862 23.925 11.7037C23.925 11.9214 23.7484 12.0989 23.5312 12.0989C23.3135 12.0989 23.1375 11.9236 23.1375 11.7065V11.7036Z" fill="#0E1D4C" stroke="white" stroke-width="0.15"/>
</svg>
